<?xml version="1.0" encoding="UTF-8" standalone="no"?>
<!DOCTYPE svg PUBLIC "-//W3C//DTD SVG 1.1//EN"
 "http://www.w3.org/Graphics/SVG/1.1/DTD/svg11.dtd">
<!-- Generated by graphviz version 2.40.1 (20161225.0304)
 -->
<!-- Title: delivery Pages: 1 -->
<svg width="303pt" height="645pt"
 viewBox="0.00 0.00 303.00 645.00" xmlns="http://www.w3.org/2000/svg" xmlns:xlink="http://www.w3.org/1999/xlink">
<g id="graph0" class="graph" transform="scale(1 1) rotate(0) translate(4 641)">
<title>delivery</title>
<polygon fill="#ffffff" stroke="transparent" points="-4,4 -4,-641 299,-641 299,4 -4,4"/>
<!-- delivery -->
<g id="node1" class="node">
<title>delivery</title>
<polygon fill="#efefef" stroke="transparent" points="46.5,-555.5 46.5,-590.5 249.5,-590.5 249.5,-555.5 46.5,-555.5"/>
<polygon fill="none" stroke="#000000" points="46.5,-555.5 46.5,-590.5 249.5,-590.5 249.5,-555.5 46.5,-555.5"/>
<text text-anchor="start" x="53.2164" y="-568.3" font-family="Arial Bold" font-size="18.00" fill="#000000">delivery</text>
<text text-anchor="start" x="115.2156" y="-568.3" font-family="Arial" font-size="14.00" fill="#000000">    </text>
<text text-anchor="start" x="149.4204" y="-568.3" font-family="Arial" font-size="14.00" fill="#666666">[BASE TABLE]</text>
<polygon fill="none" stroke="#000000" points="46.5,-525.5 46.5,-555.5 249.5,-555.5 249.5,-525.5 46.5,-525.5"/>
<text text-anchor="start" x="53.5" y="-536.9" font-family="Arial" font-size="14.00" fill="#000000">id </text>
<text text-anchor="start" x="68.2798" y="-536.9" font-family="Arial" font-size="14.00" fill="#666666">[int(11)]</text>
<polygon fill="none" stroke="#000000" points="46.5,-495.5 46.5,-525.5 249.5,-525.5 249.5,-495.5 46.5,-495.5"/>
<text text-anchor="start" x="53.5" y="-506.9" font-family="Arial" font-size="14.00" fill="#000000">order_date </text>
<text text-anchor="start" x="125.0806" y="-506.9" font-family="Arial" font-size="14.00" fill="#666666">[date]</text>
<polygon fill="none" stroke="#000000" points="46.5,-465.5 46.5,-495.5 249.5,-495.5 249.5,-465.5 46.5,-465.5"/>
<text text-anchor="start" x="53.5" y="-476.9" font-family="Arial" font-size="14.00" fill="#000000">order_nr </text>
<text text-anchor="start" x="110.2854" y="-476.9" font-family="Arial" font-size="14.00" fill="#666666">[int(11)]</text>
<polygon fill="none" stroke="#000000" points="46.5,-435.5 46.5,-465.5 249.5,-465.5 249.5,-435.5 46.5,-435.5"/>
<text text-anchor="start" x="53.5" y="-446.9" font-family="Arial" font-size="14.00" fill="#000000">my_ref </text>
<text text-anchor="start" x="100.1676" y="-446.9" font-family="Arial" font-size="14.00" fill="#666666">[varchar(255)]</text>
<polygon fill="none" stroke="#000000" points="46.5,-405.5 46.5,-435.5 249.5,-435.5 249.5,-405.5 46.5,-405.5"/>
<text text-anchor="start" x="53.0989" y="-416.9" font-family="Arial" font-size="14.00" fill="#000000">wholesale_artnr </text>
<text text-anchor="start" x="155.7819" y="-416.9" font-family="Arial" font-size="14.00" fill="#666666">[varchar(255)]</text>
<polygon fill="none" stroke="#000000" points="46.5,-375.5 46.5,-405.5 249.5,-405.5 249.5,-375.5 46.5,-375.5"/>
<text text-anchor="start" x="53.5" y="-386.9" font-family="Arial" font-size="14.00" fill="#000000">wholesale_id </text>
<text text-anchor="start" x="138.2952" y="-386.9" font-family="Arial" font-size="14.00" fill="#666666">[int(11)]</text>
<polygon fill="none" stroke="#000000" points="46.5,-345.5 46.5,-375.5 249.5,-375.5 249.5,-345.5 46.5,-345.5"/>
<text text-anchor="start" x="53.5" y="-356.9" font-family="Arial" font-size="14.00" fill="#000000">product_id </text>
<text text-anchor="start" x="122.744" y="-356.9" font-family="Arial" font-size="14.00" fill="#666666">[int(11)]</text>
<polygon fill="none" stroke="#000000" points="46.5,-315.5 46.5,-345.5 249.5,-345.5 249.5,-315.5 46.5,-315.5"/>
<text text-anchor="start" x="53.5" y="-326.9" font-family="Arial" font-size="14.00" fill="#000000">delivery_date </text>
<text text-anchor="start" x="140.6332" y="-326.9" font-family="Arial" font-size="14.00" fill="#666666">[date]</text>
<polygon fill="none" stroke="#000000" points="46.5,-285.5 46.5,-315.5 249.5,-315.5 249.5,-285.5 46.5,-285.5"/>
<text text-anchor="start" x="53.5" y="-296.9" font-family="Arial" font-size="14.00" fill="#000000">delivery_nr </text>
<text text-anchor="start" x="125.838" y="-296.9" font-family="Arial" font-size="14.00" fill="#666666">[int(11)]</text>
<polygon fill="none" stroke="#000000" points="46.5,-255.5 46.5,-285.5 249.5,-285.5 249.5,-255.5 46.5,-255.5"/>
<text text-anchor="start" x="53.5" y="-266.9" font-family="Arial" font-size="14.00" fill="#000000">bruto_price </text>
<text text-anchor="start" x="127.4046" y="-266.9" font-family="Arial" font-size="14.00" fill="#666666">[decimal(5,2)]</text>
<polygon fill="none" stroke="#000000" points="46.5,-225.5 46.5,-255.5 249.5,-255.5 249.5,-225.5 46.5,-225.5"/>
<text text-anchor="start" x="53.5" y="-236.9" font-family="Arial" font-size="14.00" fill="#000000">netto_price </text>
<text text-anchor="start" x="126.6346" y="-236.9" font-family="Arial" font-size="14.00" fill="#666666">[decimal(5,2)]</text>
<polygon fill="none" stroke="#000000" points="46.5,-195.5 46.5,-225.5 249.5,-225.5 249.5,-195.5 46.5,-195.5"/>
<text text-anchor="start" x="53.5" y="-206.9" font-family="Arial" font-size="14.00" fill="#000000">amount </text>
<text text-anchor="start" x="104.0722" y="-206.9" font-family="Arial" font-size="14.00" fill="#666666">[int(11)]</text>
<polygon fill="none" stroke="#000000" points="46.5,-165.5 46.5,-195.5 249.5,-195.5 249.5,-165.5 46.5,-165.5"/>
<text text-anchor="start" x="53.5" y="-176.9" font-family="Arial" font-size="14.00" fill="#000000">lotnr </text>
<text text-anchor="start" x="84.6136" y="-176.9" font-family="Arial" font-size="14.00" fill="#666666">[varchar(255)]</text>
<polygon fill="none" stroke="#000000" points="46.5,-135.5 46.5,-165.5 249.5,-165.5 249.5,-135.5 46.5,-135.5"/>
<text text-anchor="start" x="53.5" y="-146.9" font-family="Arial" font-size="14.00" fill="#000000">due_date </text>
<text text-anchor="start" x="115.7594" y="-146.9" font-family="Arial" font-size="14.00" fill="#666666">[date]</text>
<polygon fill="none" stroke="#000000" points="46.5,-105.5 46.5,-135.5 249.5,-135.5 249.5,-105.5 46.5,-105.5"/>
<text text-anchor="start" x="53.5" y="-116.9" font-family="Arial" font-size="14.00" fill="#000000">imported </text>
<text text-anchor="start" x="111.8394" y="-116.9" font-family="Arial" font-size="14.00" fill="#666666">[tinyint(1)]</text>
<polygon fill="none" stroke="#000000" points="46.5,-75.5 46.5,-105.5 249.5,-105.5 249.5,-75.5 46.5,-75.5"/>
<text text-anchor="start" x="53.5" y="-86.9" font-family="Arial" font-size="14.00" fill="#000000">updated_at </text>
<text text-anchor="start" x="127.4326" y="-86.9" font-family="Arial" font-size="14.00" fill="#666666">[datetime]</text>
<polygon fill="none" stroke="#000000" points="46.5,-45.5 46.5,-75.5 249.5,-75.5 249.5,-45.5 46.5,-45.5"/>
<text text-anchor="start" x="53.5" y="-56.9" font-family="Arial" font-size="14.00" fill="#000000">created_at </text>
<text text-anchor="start" x="123.528" y="-56.9" font-family="Arial" font-size="14.00" fill="#666666">[datetime]</text>
<polygon fill="none" stroke="#000000" stroke-width="3" points="44.5,-44.5 44.5,-592.5 250.5,-592.5 250.5,-44.5 44.5,-44.5"/>
</g>
</g>
</svg>
