<?xml version="1.0" encoding="UTF-8" standalone="no"?>
<!DOCTYPE svg PUBLIC "-//W3C//DTD SVG 1.1//EN"
 "http://www.w3.org/Graphics/SVG/1.1/DTD/svg11.dtd">
<!-- Generated by graphviz version 2.40.1 (20161225.0304)
 -->
<!-- Title: events_procedures Pages: 1 -->
<svg width="394pt" height="465pt"
 viewBox="0.00 0.00 394.00 465.00" xmlns="http://www.w3.org/2000/svg" xmlns:xlink="http://www.w3.org/1999/xlink">
<g id="graph0" class="graph" transform="scale(1 1) rotate(0) translate(4 461)">
<title>events_procedures</title>
<polygon fill="#ffffff" stroke="transparent" points="-4,4 -4,-461 390,-461 390,4 -4,4"/>
<!-- events_procedures -->
<g id="node1" class="node">
<title>events_procedures</title>
<polygon fill="#efefef" stroke="transparent" points="46,-375.5 46,-410.5 340,-410.5 340,-375.5 46,-375.5"/>
<polygon fill="none" stroke="#000000" points="46,-375.5 46,-410.5 340,-410.5 340,-375.5 46,-375.5"/>
<text text-anchor="start" x="52.6917" y="-388.3" font-family="Arial Bold" font-size="18.00" fill="#000000">events_procedures</text>
<text text-anchor="start" x="205.7403" y="-388.3" font-family="Arial" font-size="14.00" fill="#000000">    </text>
<text text-anchor="start" x="239.9451" y="-388.3" font-family="Arial" font-size="14.00" fill="#666666">[BASE TABLE]</text>
<polygon fill="none" stroke="#000000" points="46,-345.5 46,-375.5 340,-375.5 340,-345.5 46,-345.5"/>
<text text-anchor="start" x="53" y="-356.9" font-family="Arial" font-size="14.00" fill="#000000">id </text>
<text text-anchor="start" x="67.7798" y="-356.9" font-family="Arial" font-size="14.00" fill="#666666">[int(11)]</text>
<polygon fill="none" stroke="#000000" points="46,-315.5 46,-345.5 340,-345.5 340,-315.5 46,-315.5"/>
<text text-anchor="start" x="53" y="-326.9" font-family="Arial" font-size="14.00" fill="#000000">procedures_id </text>
<text text-anchor="start" x="145.5792" y="-326.9" font-family="Arial" font-size="14.00" fill="#666666">[smallint(6)]</text>
<polygon fill="none" stroke="#000000" points="46,-285.5 46,-315.5 340,-315.5 340,-285.5 46,-285.5"/>
<text text-anchor="start" x="53" y="-296.9" font-family="Arial" font-size="14.00" fill="#000000">event_id </text>
<text text-anchor="start" x="109.8008" y="-296.9" font-family="Arial" font-size="14.00" fill="#666666">[int(11)]</text>
<polygon fill="none" stroke="#000000" points="46,-255.5 46,-285.5 340,-285.5 340,-255.5 46,-255.5"/>
<text text-anchor="start" x="53" y="-266.9" font-family="Arial" font-size="14.00" fill="#000000">amount </text>
<text text-anchor="start" x="103.5722" y="-266.9" font-family="Arial" font-size="14.00" fill="#666666">[tinyint(4)]</text>
<polygon fill="none" stroke="#000000" points="46,-225.5 46,-255.5 340,-255.5 340,-225.5 46,-225.5"/>
<text text-anchor="start" x="53" y="-236.9" font-family="Arial" font-size="14.00" fill="#000000">net_price </text>
<text text-anchor="start" x="114.4614" y="-236.9" font-family="Arial" font-size="14.00" fill="#666666">[decimal(10,2)]</text>
<polygon fill="none" stroke="#000000" points="46,-195.5 46,-225.5 340,-225.5 340,-195.5 46,-195.5"/>
<text text-anchor="start" x="53" y="-206.9" font-family="Arial" font-size="14.00" fill="#000000">price </text>
<text text-anchor="start" x="87.223" y="-206.9" font-family="Arial" font-size="14.00" fill="#666666">[decimal(10,4)]</text>
<polygon fill="none" stroke="#000000" points="46,-165.5 46,-195.5 340,-195.5 340,-165.5 46,-165.5"/>
<text text-anchor="start" x="53" y="-176.9" font-family="Arial" font-size="14.00" fill="#000000">btw </text>
<text text-anchor="start" x="78.6704" y="-176.9" font-family="Arial" font-size="14.00" fill="#666666">[tinyint(4)]</text>
<polygon fill="none" stroke="#000000" points="46,-135.5 46,-165.5 340,-165.5 340,-135.5 46,-135.5"/>
<text text-anchor="start" x="53" y="-146.9" font-family="Arial" font-size="14.00" fill="#000000">booking </text>
<text text-anchor="start" x="105.9102" y="-146.9" font-family="Arial" font-size="14.00" fill="#666666">[tinyint(11)]</text>
<polygon fill="none" stroke="#000000" points="46,-105.5 46,-135.5 340,-135.5 340,-105.5 46,-105.5"/>
<text text-anchor="start" x="53" y="-116.9" font-family="Arial" font-size="14.00" fill="#000000">calc_net_price </text>
<text text-anchor="start" x="147.1332" y="-116.9" font-family="Arial" font-size="14.00" fill="#666666">[decimal(10,2)]</text>
<polygon fill="none" stroke="#000000" points="46,-75.5 46,-105.5 340,-105.5 340,-75.5 46,-75.5"/>
<text text-anchor="start" x="53" y="-86.9" font-family="Arial" font-size="14.00" fill="#000000">created_at </text>
<text text-anchor="start" x="123.028" y="-86.9" font-family="Arial" font-size="14.00" fill="#666666">[datetime]</text>
<polygon fill="none" stroke="#000000" points="46,-45.5 46,-75.5 340,-75.5 340,-45.5 46,-45.5"/>
<text text-anchor="start" x="53" y="-56.9" font-family="Arial" font-size="14.00" fill="#000000">updated_at </text>
<text text-anchor="start" x="126.9326" y="-56.9" font-family="Arial" font-size="14.00" fill="#666666">[datetime]</text>
<polygon fill="none" stroke="#000000" stroke-width="3" points="44.5,-44.5 44.5,-412.5 341.5,-412.5 341.5,-44.5 44.5,-44.5"/>
</g>
</g>
</svg>
