<?xml version="1.0" encoding="UTF-8" standalone="no"?>
<!DOCTYPE svg PUBLIC "-//W3C//DTD SVG 1.1//EN"
 "http://www.w3.org/Graphics/SVG/1.1/DTD/svg11.dtd">
<!-- Generated by graphviz version 2.40.1 (20161225.0304)
 -->
<!-- Title: groups Pages: 1 -->
<svg width="429pt" height="472pt"
 viewBox="0.00 0.00 429.00 472.00" xmlns="http://www.w3.org/2000/svg" xmlns:xlink="http://www.w3.org/1999/xlink">
<g id="graph0" class="graph" transform="scale(1 1) rotate(0) translate(4 468)">
<title>groups</title>
<polygon fill="#ffffff" stroke="transparent" points="-4,4 -4,-468 425,-468 425,4 -4,4"/>
<!-- groups -->
<g id="node1" class="node">
<title>groups</title>
<polygon fill="#efefef" stroke="transparent" points="154,-135.5 154,-170.5 350,-170.5 350,-135.5 154,-135.5"/>
<polygon fill="none" stroke="#000000" points="154,-135.5 154,-170.5 350,-170.5 350,-135.5 154,-135.5"/>
<text text-anchor="start" x="160.7075" y="-148.3" font-family="Arial Bold" font-size="18.00" fill="#000000">groups</text>
<text text-anchor="start" x="215.7245" y="-148.3" font-family="Arial" font-size="14.00" fill="#000000">    </text>
<text text-anchor="start" x="249.9293" y="-148.3" font-family="Arial" font-size="14.00" fill="#666666">[BASE TABLE]</text>
<polygon fill="none" stroke="#000000" points="154,-105.5 154,-135.5 350,-135.5 350,-105.5 154,-105.5"/>
<text text-anchor="start" x="161" y="-116.9" font-family="Arial" font-size="14.00" fill="#000000">id </text>
<text text-anchor="start" x="175.7798" y="-116.9" font-family="Arial" font-size="14.00" fill="#666666">[mediumint(8) unsigned]</text>
<polygon fill="none" stroke="#000000" points="154,-75.5 154,-105.5 350,-105.5 350,-75.5 154,-75.5"/>
<text text-anchor="start" x="161" y="-86.9" font-family="Arial" font-size="14.00" fill="#000000">name </text>
<text text-anchor="start" x="199.899" y="-86.9" font-family="Arial" font-size="14.00" fill="#666666">[varchar(20)]</text>
<polygon fill="none" stroke="#000000" points="154,-45.5 154,-75.5 350,-75.5 350,-45.5 154,-45.5"/>
<text text-anchor="start" x="161" y="-56.9" font-family="Arial" font-size="14.00" fill="#000000">description </text>
<text text-anchor="start" x="232.568" y="-56.9" font-family="Arial" font-size="14.00" fill="#666666">[varchar(100)]</text>
<polygon fill="none" stroke="#000000" stroke-width="3" points="152.5,-44.5 152.5,-172.5 351.5,-172.5 351.5,-44.5 152.5,-44.5"/>
</g>
<!-- users_groups -->
<g id="node2" class="node">
<title>users_groups</title>
<polygon fill="#efefef" stroke="transparent" points="126,-385.5 126,-420.5 378,-420.5 378,-385.5 126,-385.5"/>
<polygon fill="none" stroke="#000000" points="126,-385.5 126,-420.5 378,-420.5 378,-385.5 126,-385.5"/>
<text text-anchor="start" x="133.7021" y="-398.3" font-family="Arial Bold" font-size="18.00" fill="#000000">users_groups</text>
<text text-anchor="start" x="242.7299" y="-398.3" font-family="Arial" font-size="14.00" fill="#000000">    </text>
<text text-anchor="start" x="276.9347" y="-398.3" font-family="Arial" font-size="14.00" fill="#666666">[BASE TABLE]</text>
<polygon fill="none" stroke="#000000" points="126,-355.5 126,-385.5 378,-385.5 378,-355.5 126,-355.5"/>
<text text-anchor="start" x="133" y="-366.9" font-family="Arial" font-size="14.00" fill="#000000">id    </text>
<text text-anchor="start" x="178.094" y="-366.9" font-family="Arial" font-size="14.00" fill="#666666">[int(10) unsigned]</text>
<polygon fill="none" stroke="#000000" points="126,-325.5 126,-355.5 378,-355.5 378,-325.5 126,-325.5"/>
<text text-anchor="start" x="133" y="-336.9" font-family="Arial" font-size="14.00" fill="#000000">user_id    </text>
<text text-anchor="start" x="213.1024" y="-336.9" font-family="Arial" font-size="14.00" fill="#666666">[int(10) unsigned]</text>
<polygon fill="none" stroke="#000000" points="126,-295.5 126,-325.5 378,-325.5 378,-295.5 126,-295.5"/>
<text text-anchor="start" x="132.5996" y="-306.9" font-family="Arial" font-size="14.00" fill="#000000">group_id    </text>
<text text-anchor="start" x="221.2672" y="-306.9" font-family="Arial" font-size="14.00" fill="#666666">[mediumint(8) unsigned]</text>
</g>
<!-- users_groups&#45;&gt;groups -->
<g id="edge1" class="edge">
<title>users_groups:group_id&#45;&gt;groups:id</title>
<path fill="none" stroke="#000000" d="M252.9407,-285.4387C261.5879,-243.0175 327.4454,-263.9651 350,-217 368.567,-178.3383 392.8889,-120.5 350,-120.5"/>
<polygon fill="#000000" stroke="#000000" points="252.931,-285.5434 247.5195,-295.0811 252.4655,-290.5217 252,-295.5 252,-295.5 252,-295.5 252.4655,-290.5217 256.4805,-295.9189 252.931,-285.5434 252.931,-285.5434"/>
<text text-anchor="start" x="6.827" y="-305.5" font-family="Arial" font-size="10.00" fill="#000000">FOREIGN KEY (group_id) REFERENCES groups (id)</text>
</g>
</g>
</svg>
