<?xml version="1.0" encoding="UTF-8" standalone="no"?>
<!DOCTYPE svg PUBLIC "-//W3C//DTD SVG 1.1//EN"
 "http://www.w3.org/Graphics/SVG/1.1/DTD/svg11.dtd">
<!-- Generated by graphviz version 2.40.1 (20161225.0304)
 -->
<!-- Title: login_attempts Pages: 1 -->
<svg width="358pt" height="255pt"
 viewBox="0.00 0.00 358.00 255.00" xmlns="http://www.w3.org/2000/svg" xmlns:xlink="http://www.w3.org/1999/xlink">
<g id="graph0" class="graph" transform="scale(1 1) rotate(0) translate(4 251)">
<title>login_attempts</title>
<polygon fill="#ffffff" stroke="transparent" points="-4,4 -4,-251 354,-251 354,4 -4,4"/>
<!-- login_attempts -->
<g id="node1" class="node">
<title>login_attempts</title>
<polygon fill="#efefef" stroke="transparent" points="46,-165.5 46,-200.5 304,-200.5 304,-165.5 46,-165.5"/>
<polygon fill="none" stroke="#000000" points="46,-165.5 46,-200.5 304,-200.5 304,-165.5 46,-165.5"/>
<text text-anchor="start" x="52.7007" y="-178.3" font-family="Arial Bold" font-size="18.00" fill="#000000">login_attempts</text>
<text text-anchor="start" x="169.7313" y="-178.3" font-family="Arial" font-size="14.00" fill="#000000">    </text>
<text text-anchor="start" x="203.9361" y="-178.3" font-family="Arial" font-size="14.00" fill="#666666">[BASE TABLE]</text>
<polygon fill="none" stroke="#000000" points="46,-135.5 46,-165.5 304,-165.5 304,-135.5 46,-135.5"/>
<text text-anchor="start" x="53" y="-146.9" font-family="Arial" font-size="14.00" fill="#000000">id </text>
<text text-anchor="start" x="67.7798" y="-146.9" font-family="Arial" font-size="14.00" fill="#666666">[int(10) unsigned]</text>
<polygon fill="none" stroke="#000000" points="46,-105.5 46,-135.5 304,-135.5 304,-105.5 46,-105.5"/>
<text text-anchor="start" x="53" y="-116.9" font-family="Arial" font-size="14.00" fill="#000000">ip_address </text>
<text text-anchor="start" x="125.3534" y="-116.9" font-family="Arial" font-size="14.00" fill="#666666">[varchar(15)]</text>
<polygon fill="none" stroke="#000000" points="46,-75.5 46,-105.5 304,-105.5 304,-75.5 46,-75.5"/>
<text text-anchor="start" x="53" y="-86.9" font-family="Arial" font-size="14.00" fill="#000000">login </text>
<text text-anchor="start" x="86.4516" y="-86.9" font-family="Arial" font-size="14.00" fill="#666666">[varchar(100)]</text>
<polygon fill="none" stroke="#000000" points="46,-45.5 46,-75.5 304,-75.5 304,-45.5 46,-45.5"/>
<text text-anchor="start" x="53" y="-56.9" font-family="Arial" font-size="14.00" fill="#000000">time </text>
<text text-anchor="start" x="83.331" y="-56.9" font-family="Arial" font-size="14.00" fill="#666666">[int(10) unsigned]</text>
<polygon fill="none" stroke="#000000" stroke-width="3" points="44.5,-44.5 44.5,-202.5 305.5,-202.5 305.5,-44.5 44.5,-44.5"/>
</g>
</g>
</svg>
