<?xml version="1.0" encoding="UTF-8" standalone="no"?>
<!DOCTYPE svg PUBLIC "-//W3C//DTD SVG 1.1//EN"
 "http://www.w3.org/Graphics/SVG/1.1/DTD/svg11.dtd">
<!-- Generated by graphviz version 2.40.1 (20161225.0304)
 -->
<!-- Title: pets Pages: 1 -->
<svg width="285pt" height="795pt"
 viewBox="0.00 0.00 285.00 795.00" xmlns="http://www.w3.org/2000/svg" xmlns:xlink="http://www.w3.org/1999/xlink">
<g id="graph0" class="graph" transform="scale(1 1) rotate(0) translate(4 791)">
<title>pets</title>
<polygon fill="#ffffff" stroke="transparent" points="-4,4 -4,-791 281,-791 281,4 -4,4"/>
<!-- pets -->
<g id="node1" class="node">
<title>pets</title>
<polygon fill="#efefef" stroke="transparent" points="46.5,-705.5 46.5,-740.5 231.5,-740.5 231.5,-705.5 46.5,-705.5"/>
<polygon fill="none" stroke="#000000" points="46.5,-705.5 46.5,-740.5 231.5,-740.5 231.5,-705.5 46.5,-705.5"/>
<text text-anchor="start" x="58.2087" y="-718.3" font-family="Arial Bold" font-size="18.00" fill="#000000">pets</text>
<text text-anchor="start" x="92.2233" y="-718.3" font-family="Arial" font-size="14.00" fill="#000000">    </text>
<text text-anchor="start" x="126.4281" y="-718.3" font-family="Arial" font-size="14.00" fill="#666666">[BASE TABLE]</text>
<polygon fill="none" stroke="#000000" points="46.5,-675.5 46.5,-705.5 231.5,-705.5 231.5,-675.5 46.5,-675.5"/>
<text text-anchor="start" x="53.5" y="-686.9" font-family="Arial" font-size="14.00" fill="#000000">id </text>
<text text-anchor="start" x="68.2798" y="-686.9" font-family="Arial" font-size="14.00" fill="#666666">[int(11)]</text>
<polygon fill="none" stroke="#000000" points="46.5,-645.5 46.5,-675.5 231.5,-675.5 231.5,-645.5 46.5,-645.5"/>
<text text-anchor="start" x="53.5" y="-656.9" font-family="Arial" font-size="14.00" fill="#000000">type </text>
<text text-anchor="start" x="83.8464" y="-656.9" font-family="Arial" font-size="14.00" fill="#666666">[tinyint(1)]</text>
<polygon fill="none" stroke="#000000" points="46.5,-615.5 46.5,-645.5 231.5,-645.5 231.5,-615.5 46.5,-615.5"/>
<text text-anchor="start" x="53.5" y="-626.9" font-family="Arial" font-size="14.00" fill="#000000">name </text>
<text text-anchor="start" x="92.399" y="-626.9" font-family="Arial" font-size="14.00" fill="#666666">[varchar(255)]</text>
<polygon fill="none" stroke="#000000" points="46.5,-585.5 46.5,-615.5 231.5,-615.5 231.5,-585.5 46.5,-585.5"/>
<text text-anchor="start" x="53.5" y="-596.9" font-family="Arial" font-size="14.00" fill="#000000">birth </text>
<text text-anchor="start" x="84.6136" y="-596.9" font-family="Arial" font-size="14.00" fill="#666666">[date]</text>
<polygon fill="none" stroke="#000000" points="46.5,-555.5 46.5,-585.5 231.5,-585.5 231.5,-555.5 46.5,-555.5"/>
<text text-anchor="start" x="53.5" y="-566.9" font-family="Arial" font-size="14.00" fill="#000000">death </text>
<text text-anchor="start" x="92.4116" y="-566.9" font-family="Arial" font-size="14.00" fill="#666666">[tinyint(1)]</text>
<polygon fill="none" stroke="#000000" points="46.5,-525.5 46.5,-555.5 231.5,-555.5 231.5,-525.5 46.5,-525.5"/>
<text text-anchor="start" x="53.5" y="-536.9" font-family="Arial" font-size="14.00" fill="#000000">death_date </text>
<text text-anchor="start" x="127.4326" y="-536.9" font-family="Arial" font-size="14.00" fill="#666666">[date]</text>
<polygon fill="none" stroke="#000000" points="46.5,-495.5 46.5,-525.5 231.5,-525.5 231.5,-495.5 46.5,-495.5"/>
<text text-anchor="start" x="53.5" y="-506.9" font-family="Arial" font-size="14.00" fill="#000000">breed </text>
<text text-anchor="start" x="93.1816" y="-506.9" font-family="Arial" font-size="14.00" fill="#666666">[int(11)]</text>
<polygon fill="none" stroke="#000000" points="46.5,-465.5 46.5,-495.5 231.5,-495.5 231.5,-465.5 46.5,-465.5"/>
<text text-anchor="start" x="53.5" y="-476.9" font-family="Arial" font-size="14.00" fill="#000000">breed2 </text>
<text text-anchor="start" x="100.9642" y="-476.9" font-family="Arial" font-size="14.00" fill="#666666">[int(11)]</text>
<polygon fill="none" stroke="#000000" points="46.5,-435.5 46.5,-465.5 231.5,-465.5 231.5,-435.5 46.5,-435.5"/>
<text text-anchor="start" x="53.5" y="-446.9" font-family="Arial" font-size="14.00" fill="#000000">gender </text>
<text text-anchor="start" x="100.9642" y="-446.9" font-family="Arial" font-size="14.00" fill="#666666">[tinyint(1)]</text>
<polygon fill="none" stroke="#000000" points="46.5,-405.5 46.5,-435.5 231.5,-435.5 231.5,-405.5 46.5,-405.5"/>
<text text-anchor="start" x="53.5" y="-416.9" font-family="Arial" font-size="14.00" fill="#000000">color </text>
<text text-anchor="start" x="87.723" y="-416.9" font-family="Arial" font-size="14.00" fill="#666666">[varchar(255)]</text>
<polygon fill="none" stroke="#000000" points="46.5,-375.5 46.5,-405.5 231.5,-405.5 231.5,-375.5 46.5,-375.5"/>
<text text-anchor="start" x="53.5" y="-386.9" font-family="Arial" font-size="14.00" fill="#000000">last_weight </text>
<text text-anchor="start" x="127.4046" y="-386.9" font-family="Arial" font-size="14.00" fill="#666666">[decimal(6,2)]</text>
<polygon fill="none" stroke="#000000" points="46.5,-345.5 46.5,-375.5 231.5,-375.5 231.5,-345.5 46.5,-345.5"/>
<text text-anchor="start" x="53.5" y="-356.9" font-family="Arial" font-size="14.00" fill="#000000">lost </text>
<text text-anchor="start" x="79.1704" y="-356.9" font-family="Arial" font-size="14.00" fill="#666666">[tinyint(1)]</text>
<polygon fill="none" stroke="#000000" points="46.5,-315.5 46.5,-345.5 231.5,-345.5 231.5,-315.5 46.5,-315.5"/>
<text text-anchor="start" x="53.5" y="-326.9" font-family="Arial" font-size="14.00" fill="#000000">chip </text>
<text text-anchor="start" x="83.0624" y="-326.9" font-family="Arial" font-size="14.00" fill="#666666">[varchar(30)]</text>
<polygon fill="none" stroke="#000000" points="46.5,-285.5 46.5,-315.5 231.5,-315.5 231.5,-285.5 46.5,-285.5"/>
<text text-anchor="start" x="53.4257" y="-296.9" font-family="Arial" font-size="14.00" fill="#000000">nr_vac_book </text>
<text text-anchor="start" x="137.4551" y="-296.9" font-family="Arial" font-size="14.00" fill="#666666">[varchar(255)]</text>
<polygon fill="none" stroke="#000000" points="46.5,-255.5 46.5,-285.5 231.5,-285.5 231.5,-255.5 46.5,-255.5"/>
<text text-anchor="start" x="53.5" y="-266.9" font-family="Arial" font-size="14.00" fill="#000000">note </text>
<text text-anchor="start" x="84.629" y="-266.9" font-family="Arial" font-size="14.00" fill="#666666">[text]</text>
<polygon fill="none" stroke="#000000" points="46.5,-225.5 46.5,-255.5 231.5,-255.5 231.5,-225.5 46.5,-225.5"/>
<text text-anchor="start" x="53.5" y="-236.9" font-family="Arial" font-size="14.00" fill="#000000">nutritional_advice </text>
<text text-anchor="start" x="166.3022" y="-236.9" font-family="Arial" font-size="14.00" fill="#666666">[text]</text>
<polygon fill="none" stroke="#000000" points="46.5,-195.5 46.5,-225.5 231.5,-225.5 231.5,-195.5 46.5,-195.5"/>
<text text-anchor="start" x="53.5" y="-206.9" font-family="Arial" font-size="14.00" fill="#000000">owner </text>
<text text-anchor="start" x="95.5056" y="-206.9" font-family="Arial" font-size="14.00" fill="#666666">[int(11)]</text>
<polygon fill="none" stroke="#000000" points="46.5,-165.5 46.5,-195.5 231.5,-195.5 231.5,-165.5 46.5,-165.5"/>
<text text-anchor="start" x="53.5" y="-176.9" font-family="Arial" font-size="14.00" fill="#000000">location </text>
<text text-anchor="start" x="105.6248" y="-176.9" font-family="Arial" font-size="14.00" fill="#666666">[int(11)]</text>
<polygon fill="none" stroke="#000000" points="46.5,-135.5 46.5,-165.5 231.5,-165.5 231.5,-135.5 46.5,-135.5"/>
<text text-anchor="start" x="53.5" y="-146.9" font-family="Arial" font-size="14.00" fill="#000000">init_vet </text>
<text text-anchor="start" x="101.7328" y="-146.9" font-family="Arial" font-size="14.00" fill="#666666">[int(11)]</text>
<polygon fill="none" stroke="#000000" points="46.5,-105.5 46.5,-135.5 231.5,-135.5 231.5,-105.5 46.5,-105.5"/>
<text text-anchor="start" x="53.5" y="-116.9" font-family="Arial" font-size="14.00" fill="#000000">created_at </text>
<text text-anchor="start" x="123.528" y="-116.9" font-family="Arial" font-size="14.00" fill="#666666">[datetime]</text>
<polygon fill="none" stroke="#000000" points="46.5,-75.5 46.5,-105.5 231.5,-105.5 231.5,-75.5 46.5,-75.5"/>
<text text-anchor="start" x="53.5" y="-86.9" font-family="Arial" font-size="14.00" fill="#000000">updated_at </text>
<text text-anchor="start" x="127.4326" y="-86.9" font-family="Arial" font-size="14.00" fill="#666666">[datetime]</text>
<polygon fill="none" stroke="#000000" points="46.5,-45.5 46.5,-75.5 231.5,-75.5 231.5,-45.5 46.5,-45.5"/>
<text text-anchor="start" x="53.5" y="-56.9" font-family="Arial" font-size="14.00" fill="#000000">deleted_at </text>
<text text-anchor="start" x="122.7566" y="-56.9" font-family="Arial" font-size="14.00" fill="#666666">[datetime]</text>
<polygon fill="none" stroke="#000000" stroke-width="3" points="44.5,-44.5 44.5,-742.5 232.5,-742.5 232.5,-44.5 44.5,-44.5"/>
</g>
</g>
</svg>
