<?xml version="1.0" encoding="UTF-8" standalone="no"?>
<!DOCTYPE svg PUBLIC "-//W3C//DTD SVG 1.1//EN"
 "http://www.w3.org/Graphics/SVG/1.1/DTD/svg11.dtd">
<!-- Generated by graphviz version 2.40.1 (20161225.0304)
 -->
<!-- Title: products Pages: 1 -->
<svg width="322pt" height="1125pt"
 viewBox="0.00 0.00 322.00 1125.00" xmlns="http://www.w3.org/2000/svg" xmlns:xlink="http://www.w3.org/1999/xlink">
<g id="graph0" class="graph" transform="scale(1 1) rotate(0) translate(4 1121)">
<title>products</title>
<polygon fill="#ffffff" stroke="transparent" points="-4,4 -4,-1121 318,-1121 318,4 -4,4"/>
<!-- products -->
<g id="node1" class="node">
<title>products</title>
<polygon fill="#efefef" stroke="transparent" points="46,-1035.5 46,-1070.5 268,-1070.5 268,-1035.5 46,-1035.5"/>
<polygon fill="none" stroke="#000000" points="46,-1035.5 46,-1070.5 268,-1070.5 268,-1035.5 46,-1035.5"/>
<text text-anchor="start" x="58.7064" y="-1048.3" font-family="Arial Bold" font-size="18.00" fill="#000000">products</text>
<text text-anchor="start" x="127.7256" y="-1048.3" font-family="Arial" font-size="14.00" fill="#000000">    </text>
<text text-anchor="start" x="161.9304" y="-1048.3" font-family="Arial" font-size="14.00" fill="#666666">[BASE TABLE]</text>
<polygon fill="none" stroke="#000000" points="46,-1005.5 46,-1035.5 268,-1035.5 268,-1005.5 46,-1005.5"/>
<text text-anchor="start" x="53" y="-1016.9" font-family="Arial" font-size="14.00" fill="#000000">id </text>
<text text-anchor="start" x="67.7798" y="-1016.9" font-family="Arial" font-size="14.00" fill="#666666">[int(11)]</text>
<polygon fill="none" stroke="#000000" points="46,-975.5 46,-1005.5 268,-1005.5 268,-975.5 46,-975.5"/>
<text text-anchor="start" x="53" y="-986.9" font-family="Arial" font-size="14.00" fill="#000000">name </text>
<text text-anchor="start" x="91.899" y="-986.9" font-family="Arial" font-size="14.00" fill="#666666">[varchar(255)]</text>
<polygon fill="none" stroke="#000000" points="46,-945.5 46,-975.5 268,-975.5 268,-945.5 46,-945.5"/>
<text text-anchor="start" x="53" y="-956.9" font-family="Arial" font-size="14.00" fill="#000000">wholesale_name </text>
<text text-anchor="start" x="161.9144" y="-956.9" font-family="Arial" font-size="14.00" fill="#666666">[varchar(255)]</text>
<polygon fill="none" stroke="#000000" points="46,-915.5 46,-945.5 268,-945.5 268,-915.5 46,-915.5"/>
<text text-anchor="start" x="53" y="-926.9" font-family="Arial" font-size="14.00" fill="#000000">short_name </text>
<text text-anchor="start" x="130.798" y="-926.9" font-family="Arial" font-size="14.00" fill="#666666">[varchar(255)]</text>
<polygon fill="none" stroke="#000000" points="46,-885.5 46,-915.5 268,-915.5 268,-885.5 46,-885.5"/>
<text text-anchor="start" x="53" y="-896.9" font-family="Arial" font-size="14.00" fill="#000000">producer </text>
<text text-anchor="start" x="112.1248" y="-896.9" font-family="Arial" font-size="14.00" fill="#666666">[varchar(255)]</text>
<polygon fill="none" stroke="#000000" points="46,-855.5 46,-885.5 268,-885.5 268,-855.5 46,-855.5"/>
<text text-anchor="start" x="53" y="-866.9" font-family="Arial" font-size="14.00" fill="#000000">supplier </text>
<text text-anchor="start" x="105.8948" y="-866.9" font-family="Arial" font-size="14.00" fill="#666666">[varchar(255)]</text>
<polygon fill="none" stroke="#000000" points="46,-825.5 46,-855.5 268,-855.5 268,-825.5 46,-825.5"/>
<text text-anchor="start" x="53" y="-836.9" font-family="Arial" font-size="14.00" fill="#000000">posologie </text>
<text text-anchor="start" x="116.7994" y="-836.9" font-family="Arial" font-size="14.00" fill="#666666">[text]</text>
<polygon fill="none" stroke="#000000" points="46,-795.5 46,-825.5 268,-825.5 268,-795.5 46,-795.5"/>
<text text-anchor="start" x="53" y="-806.9" font-family="Arial" font-size="14.00" fill="#000000">toedieningsweg </text>
<text text-anchor="start" x="154.1444" y="-806.9" font-family="Arial" font-size="14.00" fill="#666666">[varchar(50)]</text>
<polygon fill="none" stroke="#000000" points="46,-765.5 46,-795.5 268,-795.5 268,-765.5 46,-765.5"/>
<text text-anchor="start" x="53" y="-776.9" font-family="Arial" font-size="14.00" fill="#000000">type </text>
<text text-anchor="start" x="83.3464" y="-776.9" font-family="Arial" font-size="14.00" fill="#666666">[tinyint(3) unsigned]</text>
<polygon fill="none" stroke="#000000" points="46,-735.5 46,-765.5 268,-765.5 268,-735.5 46,-735.5"/>
<text text-anchor="start" x="53" y="-746.9" font-family="Arial" font-size="14.00" fill="#000000">dead_volume </text>
<text text-anchor="start" x="140.9186" y="-746.9" font-family="Arial" font-size="14.00" fill="#666666">[decimal(4,2)]</text>
<polygon fill="none" stroke="#000000" points="46,-705.5 46,-735.5 268,-735.5 268,-705.5 46,-705.5"/>
<text text-anchor="start" x="53" y="-716.9" font-family="Arial" font-size="14.00" fill="#000000">buy_volume </text>
<text text-anchor="start" x="132.3534" y="-716.9" font-family="Arial" font-size="14.00" fill="#666666">[smallint(6)]</text>
<polygon fill="none" stroke="#000000" points="46,-675.5 46,-705.5 268,-705.5 268,-675.5 46,-675.5"/>
<text text-anchor="start" x="53" y="-686.9" font-family="Arial" font-size="14.00" fill="#000000">sell_volume </text>
<text text-anchor="start" x="130.784" y="-686.9" font-family="Arial" font-size="14.00" fill="#666666">[decimal(10,2)]</text>
<polygon fill="none" stroke="#000000" points="46,-645.5 46,-675.5 268,-675.5 268,-645.5 46,-645.5"/>
<text text-anchor="start" x="53" y="-656.9" font-family="Arial" font-size="14.00" fill="#000000">buy_price </text>
<text text-anchor="start" x="117.5708" y="-656.9" font-family="Arial" font-size="14.00" fill="#666666">[decimal(10,2)]</text>
<polygon fill="none" stroke="#000000" points="46,-615.5 46,-645.5 268,-645.5 268,-615.5 46,-615.5"/>
<text text-anchor="start" x="53" y="-626.9" font-family="Arial" font-size="14.00" fill="#000000">buy_price_date </text>
<text text-anchor="start" x="152.5918" y="-626.9" font-family="Arial" font-size="14.00" fill="#666666">[date]</text>
<polygon fill="none" stroke="#000000" points="46,-585.5 46,-615.5 268,-615.5 268,-585.5 46,-585.5"/>
<text text-anchor="start" x="53" y="-596.9" font-family="Arial" font-size="14.00" fill="#000000">unit_buy </text>
<text text-anchor="start" x="109.8008" y="-596.9" font-family="Arial" font-size="14.00" fill="#666666">[varchar(10)]</text>
<polygon fill="none" stroke="#000000" points="46,-555.5 46,-585.5 268,-585.5 268,-555.5 46,-555.5"/>
<text text-anchor="start" x="53" y="-566.9" font-family="Arial" font-size="14.00" fill="#000000">unit_sell </text>
<text text-anchor="start" x="108.2314" y="-566.9" font-family="Arial" font-size="14.00" fill="#666666">[varchar(10)]</text>
<polygon fill="none" stroke="#000000" points="46,-525.5 46,-555.5 268,-555.5 268,-525.5 46,-525.5"/>
<text text-anchor="start" x="53" y="-536.9" font-family="Arial" font-size="14.00" fill="#000000">input_barcode </text>
<text text-anchor="start" x="145.5918" y="-536.9" font-family="Arial" font-size="14.00" fill="#666666">[varchar(20)]</text>
<polygon fill="none" stroke="#000000" points="46,-495.5 46,-525.5 268,-525.5 268,-495.5 46,-495.5"/>
<text text-anchor="start" x="53" y="-506.9" font-family="Arial" font-size="14.00" fill="#000000">btw_buy </text>
<text text-anchor="start" x="109.0182" y="-506.9" font-family="Arial" font-size="14.00" fill="#666666">[tinyint(4)]</text>
<polygon fill="none" stroke="#000000" points="46,-465.5 46,-495.5 268,-495.5 268,-465.5 46,-465.5"/>
<text text-anchor="start" x="53" y="-476.9" font-family="Arial" font-size="14.00" fill="#000000">btw_sell </text>
<text text-anchor="start" x="107.4488" y="-476.9" font-family="Arial" font-size="14.00" fill="#666666">[tinyint(4)]</text>
<polygon fill="none" stroke="#000000" points="46,-435.5 46,-465.5 268,-465.5 268,-435.5 46,-435.5"/>
<text text-anchor="start" x="53" y="-446.9" font-family="Arial" font-size="14.00" fill="#000000">booking_code </text>
<text text-anchor="start" x="144.0406" y="-446.9" font-family="Arial" font-size="14.00" fill="#666666">[tinyint(4)]</text>
<polygon fill="none" stroke="#000000" points="46,-405.5 46,-435.5 268,-435.5 268,-405.5 46,-405.5"/>
<text text-anchor="start" x="53" y="-416.9" font-family="Arial" font-size="14.00" fill="#000000">delay </text>
<text text-anchor="start" x="90.345" y="-416.9" font-family="Arial" font-size="14.00" fill="#666666">[int(11)]</text>
<polygon fill="none" stroke="#000000" points="46,-375.5 46,-405.5 268,-405.5 268,-375.5 46,-375.5"/>
<text text-anchor="start" x="53" y="-386.9" font-family="Arial" font-size="14.00" fill="#000000">comment </text>
<text text-anchor="start" x="114.4502" y="-386.9" font-family="Arial" font-size="14.00" fill="#666666">[text]</text>
<polygon fill="none" stroke="#000000" points="46,-345.5 46,-375.5 268,-375.5 268,-345.5 46,-345.5"/>
<text text-anchor="start" x="53" y="-356.9" font-family="Arial" font-size="14.00" fill="#000000">sellable </text>
<text text-anchor="start" x="104.3408" y="-356.9" font-family="Arial" font-size="14.00" fill="#666666">[tinyint(1)]</text>
<polygon fill="none" stroke="#000000" points="46,-315.5 46,-345.5 268,-345.5 268,-315.5 46,-315.5"/>
<text text-anchor="start" x="53" y="-326.9" font-family="Arial" font-size="14.00" fill="#000000">discontinued </text>
<text text-anchor="start" x="135.4726" y="-326.9" font-family="Arial" font-size="14.00" fill="#666666">[tinyint(1)]</text>
<polygon fill="none" stroke="#000000" points="46,-285.5 46,-315.5 268,-315.5 268,-285.5 46,-285.5"/>
<text text-anchor="start" x="53" y="-296.9" font-family="Arial" font-size="14.00" fill="#000000">backorder </text>
<text text-anchor="start" x="119.1248" y="-296.9" font-family="Arial" font-size="14.00" fill="#666666">[tinyint(1)]</text>
<polygon fill="none" stroke="#000000" points="46,-255.5 46,-285.5 268,-285.5 268,-255.5 46,-255.5"/>
<text text-anchor="start" x="53" y="-266.9" font-family="Arial" font-size="14.00" fill="#000000">limit_stock </text>
<text text-anchor="start" x="122.2174" y="-266.9" font-family="Arial" font-size="14.00" fill="#666666">[smallint(5) unsigned]</text>
<polygon fill="none" stroke="#000000" points="46,-225.5 46,-255.5 268,-255.5 268,-225.5 46,-225.5"/>
<text text-anchor="start" x="53" y="-236.9" font-family="Arial" font-size="14.00" fill="#000000">vaccin </text>
<text text-anchor="start" x="96.5624" y="-236.9" font-family="Arial" font-size="14.00" fill="#666666">[tinyint(1)]</text>
<polygon fill="none" stroke="#000000" points="46,-195.5 46,-225.5 268,-225.5 268,-195.5 46,-195.5"/>
<text text-anchor="start" x="52.7623" y="-206.9" font-family="Arial" font-size="14.00" fill="#000000">vaccin_freq </text>
<text text-anchor="start" x="128.2237" y="-206.9" font-family="Arial" font-size="14.00" fill="#666666">[smallint(5) unsigned]</text>
<polygon fill="none" stroke="#000000" points="46,-165.5 46,-195.5 268,-195.5 268,-165.5 46,-165.5"/>
<text text-anchor="start" x="53" y="-176.9" font-family="Arial" font-size="14.00" fill="#000000">vhbcode </text>
<text text-anchor="start" x="109.8036" y="-176.9" font-family="Arial" font-size="14.00" fill="#666666">[varchar(255)]</text>
<polygon fill="none" stroke="#000000" points="46,-135.5 46,-165.5 268,-165.5 268,-135.5 46,-135.5"/>
<text text-anchor="start" x="53" y="-146.9" font-family="Arial" font-size="14.00" fill="#000000">wholesale </text>
<text text-anchor="start" x="119.1234" y="-146.9" font-family="Arial" font-size="14.00" fill="#666666">[int(11)]</text>
<polygon fill="none" stroke="#000000" points="46,-105.5 46,-135.5 268,-135.5 268,-105.5 46,-105.5"/>
<text text-anchor="start" x="53" y="-116.9" font-family="Arial" font-size="14.00" fill="#000000">created_at </text>
<text text-anchor="start" x="123.028" y="-116.9" font-family="Arial" font-size="14.00" fill="#666666">[datetime]</text>
<polygon fill="none" stroke="#000000" points="46,-75.5 46,-105.5 268,-105.5 268,-75.5 46,-75.5"/>
<text text-anchor="start" x="53" y="-86.9" font-family="Arial" font-size="14.00" fill="#000000">updated_at </text>
<text text-anchor="start" x="126.9326" y="-86.9" font-family="Arial" font-size="14.00" fill="#666666">[datetime]</text>
<polygon fill="none" stroke="#000000" points="46,-45.5 46,-75.5 268,-75.5 268,-45.5 46,-45.5"/>
<text text-anchor="start" x="53" y="-56.9" font-family="Arial" font-size="14.00" fill="#000000">deleted_at </text>
<text text-anchor="start" x="122.2566" y="-56.9" font-family="Arial" font-size="14.00" fill="#666666">[datetime]</text>
<polygon fill="none" stroke="#000000" stroke-width="3" points="44.5,-44.5 44.5,-1072.5 269.5,-1072.5 269.5,-44.5 44.5,-44.5"/>
</g>
</g>
</svg>
