<?xml version="1.0" encoding="UTF-8" standalone="no"?>
<!DOCTYPE svg PUBLIC "-//W3C//DTD SVG 1.1//EN"
 "http://www.w3.org/Graphics/SVG/1.1/DTD/svg11.dtd">
<!-- Generated by graphviz version 2.40.1 (20161225.0304)
 -->
<!-- Title: register_in Pages: 1 -->
<svg width="325pt" height="405pt"
 viewBox="0.00 0.00 325.00 405.00" xmlns="http://www.w3.org/2000/svg" xmlns:xlink="http://www.w3.org/1999/xlink">
<g id="graph0" class="graph" transform="scale(1 1) rotate(0) translate(4 401)">
<title>register_in</title>
<polygon fill="#ffffff" stroke="transparent" points="-4,4 -4,-401 321,-401 321,4 -4,4"/>
<!-- register_in -->
<g id="node1" class="node">
<title>register_in</title>
<polygon fill="#efefef" stroke="transparent" points="46.5,-315.5 46.5,-350.5 271.5,-350.5 271.5,-315.5 46.5,-315.5"/>
<polygon fill="none" stroke="#000000" points="46.5,-315.5 46.5,-350.5 271.5,-350.5 271.5,-315.5 46.5,-315.5"/>
<text text-anchor="start" x="53.213" y="-328.3" font-family="Arial Bold" font-size="18.00" fill="#000000">register_in</text>
<text text-anchor="start" x="137.219" y="-328.3" font-family="Arial" font-size="14.00" fill="#000000">    </text>
<text text-anchor="start" x="171.4238" y="-328.3" font-family="Arial" font-size="14.00" fill="#666666">[BASE TABLE]</text>
<polygon fill="none" stroke="#000000" points="46.5,-285.5 46.5,-315.5 271.5,-315.5 271.5,-285.5 46.5,-285.5"/>
<text text-anchor="start" x="53.5" y="-296.9" font-family="Arial" font-size="14.00" fill="#000000">id </text>
<text text-anchor="start" x="68.2798" y="-296.9" font-family="Arial" font-size="14.00" fill="#666666">[int(11)]</text>
<polygon fill="none" stroke="#000000" points="46.5,-255.5 46.5,-285.5 271.5,-285.5 271.5,-255.5 46.5,-255.5"/>
<text text-anchor="start" x="53.5" y="-266.9" font-family="Arial" font-size="14.00" fill="#000000">product </text>
<text text-anchor="start" x="104.0722" y="-266.9" font-family="Arial" font-size="14.00" fill="#666666">[int(11)]</text>
<polygon fill="none" stroke="#000000" points="46.5,-225.5 46.5,-255.5 271.5,-255.5 271.5,-225.5 46.5,-225.5"/>
<text text-anchor="start" x="53.5" y="-236.9" font-family="Arial" font-size="14.00" fill="#000000">volume </text>
<text text-anchor="start" x="102.5056" y="-236.9" font-family="Arial" font-size="14.00" fill="#666666">[decimal(10,2)]</text>
<polygon fill="none" stroke="#000000" points="46.5,-195.5 46.5,-225.5 271.5,-225.5 271.5,-195.5 46.5,-195.5"/>
<text text-anchor="start" x="53.5" y="-206.9" font-family="Arial" font-size="14.00" fill="#000000">eol </text>
<text text-anchor="start" x="76.0624" y="-206.9" font-family="Arial" font-size="14.00" fill="#666666">[date]</text>
<polygon fill="none" stroke="#000000" points="46.5,-165.5 46.5,-195.5 271.5,-195.5 271.5,-165.5 46.5,-165.5"/>
<text text-anchor="start" x="53.5" y="-176.9" font-family="Arial" font-size="14.00" fill="#000000">in_price </text>
<text text-anchor="start" x="106.3948" y="-176.9" font-family="Arial" font-size="14.00" fill="#666666">[decimal(10,2)]</text>
<polygon fill="none" stroke="#000000" points="46.5,-135.5 46.5,-165.5 271.5,-165.5 271.5,-135.5 46.5,-135.5"/>
<text text-anchor="start" x="53.5" y="-146.9" font-family="Arial" font-size="14.00" fill="#000000">lotnr </text>
<text text-anchor="start" x="84.6136" y="-146.9" font-family="Arial" font-size="14.00" fill="#666666">[varchar(255)]</text>
<polygon fill="none" stroke="#000000" points="46.5,-105.5 46.5,-135.5 271.5,-135.5 271.5,-105.5 46.5,-105.5"/>
<text text-anchor="start" x="53.5" y="-116.9" font-family="Arial" font-size="14.00" fill="#000000">delivery_slip </text>
<text text-anchor="start" x="134.3906" y="-116.9" font-family="Arial" font-size="14.00" fill="#666666">[int(11)]</text>
<polygon fill="none" stroke="#000000" points="46.5,-75.5 46.5,-105.5 271.5,-105.5 271.5,-75.5 46.5,-75.5"/>
<text text-anchor="start" x="53.5" y="-86.9" font-family="Arial" font-size="14.00" fill="#000000">updated_at </text>
<text text-anchor="start" x="127.4326" y="-86.9" font-family="Arial" font-size="14.00" fill="#666666">[datetime]</text>
<polygon fill="none" stroke="#000000" points="46.5,-45.5 46.5,-75.5 271.5,-75.5 271.5,-45.5 46.5,-45.5"/>
<text text-anchor="start" x="53.5" y="-56.9" font-family="Arial" font-size="14.00" fill="#000000">created_at </text>
<text text-anchor="start" x="123.528" y="-56.9" font-family="Arial" font-size="14.00" fill="#666666">[datetime]</text>
<polygon fill="none" stroke="#000000" stroke-width="3" points="44.5,-44.5 44.5,-352.5 272.5,-352.5 272.5,-44.5 44.5,-44.5"/>
</g>
</g>
</svg>
