<?xml version="1.0" encoding="UTF-8" standalone="no"?>
<!DOCTYPE svg PUBLIC "-//W3C//DTD SVG 1.1//EN"
 "http://www.w3.org/Graphics/SVG/1.1/DTD/svg11.dtd">
<!-- Generated by graphviz version 2.40.1 (20161225.0304)
 -->
<!-- Title: users_groups Pages: 1 -->
<svg width="770pt" height="1222pt"
 viewBox="0.00 0.00 769.50 1222.00" xmlns="http://www.w3.org/2000/svg" xmlns:xlink="http://www.w3.org/1999/xlink">
<g id="graph0" class="graph" transform="scale(1 1) rotate(0) translate(4 1218)">
<title>users_groups</title>
<polygon fill="#ffffff" stroke="transparent" points="-4,4 -4,-1218 765.5,-1218 765.5,4 -4,4"/>
<!-- users_groups -->
<g id="node1" class="node">
<title>users_groups</title>
<polygon fill="#efefef" stroke="transparent" points="259.5,-1132.5 259.5,-1167.5 509.5,-1167.5 509.5,-1132.5 259.5,-1132.5"/>
<polygon fill="none" stroke="#000000" points="259.5,-1132.5 259.5,-1167.5 509.5,-1167.5 509.5,-1132.5 259.5,-1132.5"/>
<text text-anchor="start" x="266.2021" y="-1145.3" font-family="Arial Bold" font-size="18.00" fill="#000000">users_groups</text>
<text text-anchor="start" x="375.2299" y="-1145.3" font-family="Arial" font-size="14.00" fill="#000000">    </text>
<text text-anchor="start" x="409.4347" y="-1145.3" font-family="Arial" font-size="14.00" fill="#666666">[BASE TABLE]</text>
<polygon fill="none" stroke="#000000" points="259.5,-1102.5 259.5,-1132.5 509.5,-1132.5 509.5,-1102.5 259.5,-1102.5"/>
<text text-anchor="start" x="266.5" y="-1113.9" font-family="Arial" font-size="14.00" fill="#000000">id </text>
<text text-anchor="start" x="281.2798" y="-1113.9" font-family="Arial" font-size="14.00" fill="#666666">[int(10) unsigned]</text>
<polygon fill="none" stroke="#000000" points="259.5,-1072.5 259.5,-1102.5 509.5,-1102.5 509.5,-1072.5 259.5,-1072.5"/>
<text text-anchor="start" x="266.5" y="-1083.9" font-family="Arial" font-size="14.00" fill="#000000">user_id </text>
<text text-anchor="start" x="316.2882" y="-1083.9" font-family="Arial" font-size="14.00" fill="#666666">[int(10) unsigned]</text>
<polygon fill="none" stroke="#000000" points="259.5,-1042.5 259.5,-1072.5 509.5,-1072.5 509.5,-1042.5 259.5,-1042.5"/>
<text text-anchor="start" x="266.5" y="-1053.9" font-family="Arial" font-size="14.00" fill="#000000">group_id </text>
<text text-anchor="start" x="324.8534" y="-1053.9" font-family="Arial" font-size="14.00" fill="#666666">[mediumint(8) unsigned]</text>
<polygon fill="none" stroke="#000000" stroke-width="3" points="258,-1041.5 258,-1169.5 511,-1169.5 511,-1041.5 258,-1041.5"/>
</g>
<!-- users -->
<g id="node2" class="node">
<title>users</title>
<polygon fill="#efefef" stroke="transparent" points="43.5,-882.5 43.5,-917.5 358.5,-917.5 358.5,-882.5 43.5,-882.5"/>
<polygon fill="none" stroke="#000000" points="43.5,-882.5 43.5,-917.5 358.5,-917.5 358.5,-882.5 43.5,-882.5"/>
<text text-anchor="start" x="115.2137" y="-895.3" font-family="Arial Bold" font-size="18.00" fill="#000000">users</text>
<text text-anchor="start" x="159.2183" y="-895.3" font-family="Arial" font-size="14.00" fill="#000000">    </text>
<text text-anchor="start" x="193.4231" y="-895.3" font-family="Arial" font-size="14.00" fill="#666666">[BASE TABLE]</text>
<polygon fill="none" stroke="#000000" points="43.5,-852.5 43.5,-882.5 358.5,-882.5 358.5,-852.5 43.5,-852.5"/>
<text text-anchor="start" x="50.5" y="-863.9" font-family="Arial" font-size="14.00" fill="#000000">id    </text>
<text text-anchor="start" x="95.594" y="-863.9" font-family="Arial" font-size="14.00" fill="#666666">[int(10) unsigned]</text>
<polygon fill="none" stroke="#000000" points="43.5,-822.5 43.5,-852.5 358.5,-852.5 358.5,-822.5 43.5,-822.5"/>
<text text-anchor="start" x="50.5" y="-833.9" font-family="Arial" font-size="14.00" fill="#000000">ip_address    </text>
<text text-anchor="start" x="153.1676" y="-833.9" font-family="Arial" font-size="14.00" fill="#666666">[varchar(15)]</text>
<polygon fill="none" stroke="#000000" points="43.5,-792.5 43.5,-822.5 358.5,-822.5 358.5,-792.5 43.5,-792.5"/>
<text text-anchor="start" x="50.5" y="-803.9" font-family="Arial" font-size="14.00" fill="#000000">username    </text>
<text text-anchor="start" x="146.939" y="-803.9" font-family="Arial" font-size="14.00" fill="#666666">[varchar(100)]</text>
<polygon fill="none" stroke="#000000" points="43.5,-762.5 43.5,-792.5 358.5,-792.5 358.5,-762.5 43.5,-762.5"/>
<text text-anchor="start" x="50.5" y="-773.9" font-family="Arial" font-size="14.00" fill="#000000">password    </text>
<text text-anchor="start" x="144.6024" y="-773.9" font-family="Arial" font-size="14.00" fill="#666666">[varchar(255)]</text>
<polygon fill="none" stroke="#000000" points="43.5,-732.5 43.5,-762.5 358.5,-762.5 358.5,-732.5 43.5,-732.5"/>
<text text-anchor="start" x="50.5" y="-743.9" font-family="Arial" font-size="14.00" fill="#000000">salt    </text>
<text text-anchor="start" x="106.4846" y="-743.9" font-family="Arial" font-size="14.00" fill="#666666">[varchar(255)]</text>
<polygon fill="none" stroke="#000000" points="43.5,-702.5 43.5,-732.5 358.5,-732.5 358.5,-702.5 43.5,-702.5"/>
<text text-anchor="start" x="50.5" y="-713.9" font-family="Arial" font-size="14.00" fill="#000000">email    </text>
<text text-anchor="start" x="118.1438" y="-713.9" font-family="Arial" font-size="14.00" fill="#666666">[varchar(100)]</text>
<polygon fill="none" stroke="#000000" points="43.5,-672.5 43.5,-702.5 358.5,-702.5 358.5,-672.5 43.5,-672.5"/>
<text text-anchor="start" x="50.5" y="-683.9" font-family="Arial" font-size="14.00" fill="#000000">activation_code    </text>
<text text-anchor="start" x="181.96" y="-683.9" font-family="Arial" font-size="14.00" fill="#666666">[varchar(40)]</text>
<polygon fill="none" stroke="#000000" points="43.5,-642.5 43.5,-672.5 358.5,-672.5 358.5,-642.5 43.5,-642.5"/>
<text text-anchor="start" x="50.5" y="-653.9" font-family="Arial" font-size="14.00" fill="#000000">forgotten_password_code    </text>
<text text-anchor="start" x="245.7608" y="-653.9" font-family="Arial" font-size="14.00" fill="#666666">[varchar(40)]</text>
<polygon fill="none" stroke="#000000" points="43.5,-612.5 43.5,-642.5 358.5,-642.5 358.5,-612.5 43.5,-612.5"/>
<text text-anchor="start" x="50.5" y="-623.9" font-family="Arial" font-size="14.00" fill="#000000">forgotten_password_time    </text>
<text text-anchor="start" x="241.8534" y="-623.9" font-family="Arial" font-size="14.00" fill="#666666">[int(10) unsigned]</text>
<polygon fill="none" stroke="#000000" points="43.5,-582.5 43.5,-612.5 358.5,-612.5 358.5,-582.5 43.5,-582.5"/>
<text text-anchor="start" x="50.5" y="-593.9" font-family="Arial" font-size="14.00" fill="#000000">remember_code    </text>
<text text-anchor="start" x="186.608" y="-593.9" font-family="Arial" font-size="14.00" fill="#666666">[varchar(40)]</text>
<polygon fill="none" stroke="#000000" points="43.5,-552.5 43.5,-582.5 358.5,-582.5 358.5,-552.5 43.5,-552.5"/>
<text text-anchor="start" x="50.5" y="-563.9" font-family="Arial" font-size="14.00" fill="#000000">created_on    </text>
<text text-anchor="start" x="154.7342" y="-563.9" font-family="Arial" font-size="14.00" fill="#666666">[int(10) unsigned]</text>
<polygon fill="none" stroke="#000000" points="43.5,-522.5 43.5,-552.5 358.5,-552.5 358.5,-522.5 43.5,-522.5"/>
<text text-anchor="start" x="50.5" y="-533.9" font-family="Arial" font-size="14.00" fill="#000000">last_login    </text>
<text text-anchor="start" x="143.8282" y="-533.9" font-family="Arial" font-size="14.00" fill="#666666">[int(10) unsigned]</text>
<polygon fill="none" stroke="#000000" points="43.5,-492.5 43.5,-522.5 358.5,-522.5 358.5,-492.5 43.5,-492.5"/>
<text text-anchor="start" x="50.5" y="-503.9" font-family="Arial" font-size="14.00" fill="#000000">active    </text>
<text text-anchor="start" x="121.2672" y="-503.9" font-family="Arial" font-size="14.00" fill="#666666">[tinyint(3) unsigned]</text>
<polygon fill="none" stroke="#000000" points="43.5,-462.5 43.5,-492.5 358.5,-492.5 358.5,-462.5 43.5,-462.5"/>
<text text-anchor="start" x="50.5" y="-473.9" font-family="Arial" font-size="14.00" fill="#000000">first_name    </text>
<text text-anchor="start" x="150.0442" y="-473.9" font-family="Arial" font-size="14.00" fill="#666666">[varchar(50)]</text>
<polygon fill="none" stroke="#000000" points="43.5,-432.5 43.5,-462.5 358.5,-462.5 358.5,-432.5 43.5,-432.5"/>
<text text-anchor="start" x="50.5" y="-443.9" font-family="Arial" font-size="14.00" fill="#000000">last_name    </text>
<text text-anchor="start" x="149.2756" y="-443.9" font-family="Arial" font-size="14.00" fill="#666666">[varchar(50)]</text>
<polygon fill="none" stroke="#000000" points="43.5,-402.5 43.5,-432.5 358.5,-432.5 358.5,-402.5 43.5,-402.5"/>
<text text-anchor="start" x="50.5" y="-413.9" font-family="Arial" font-size="14.00" fill="#000000">company    </text>
<text text-anchor="start" x="141.4958" y="-413.9" font-family="Arial" font-size="14.00" fill="#666666">[varchar(100)]</text>
<polygon fill="none" stroke="#000000" points="43.5,-372.5 43.5,-402.5 358.5,-402.5 358.5,-372.5 43.5,-372.5"/>
<text text-anchor="start" x="50.5" y="-383.9" font-family="Arial" font-size="14.00" fill="#000000">phone    </text>
<text text-anchor="start" x="123.6178" y="-383.9" font-family="Arial" font-size="14.00" fill="#666666">[varchar(20)]</text>
<polygon fill="none" stroke="#000000" points="43.5,-342.5 43.5,-372.5 358.5,-372.5 358.5,-342.5 43.5,-342.5"/>
<text text-anchor="start" x="50.5" y="-353.9" font-family="Arial" font-size="14.00" fill="#000000">user_date    </text>
<text text-anchor="start" x="146.9516" y="-353.9" font-family="Arial" font-size="14.00" fill="#666666">[varchar(9)]</text>
<polygon fill="none" stroke="#000000" points="43.5,-312.5 43.5,-342.5 358.5,-342.5 358.5,-312.5 43.5,-312.5"/>
<text text-anchor="start" x="50.5" y="-323.9" font-family="Arial" font-size="14.00" fill="#000000">search_config    </text>
<text text-anchor="start" x="171.8408" y="-323.9" font-family="Arial" font-size="14.00" fill="#666666">[tinyint(1)]</text>
<polygon fill="none" stroke="#000000" points="43.5,-282.5 43.5,-312.5 358.5,-312.5 358.5,-282.5 43.5,-282.5"/>
<text text-anchor="start" x="50.5" y="-293.9" font-family="Arial" font-size="14.00" fill="#000000">current_location    </text>
<text text-anchor="start" x="184.2812" y="-293.9" font-family="Arial" font-size="14.00" fill="#666666">[tinyint(3) unsigned]</text>
<polygon fill="none" stroke="#000000" points="43.5,-252.5 43.5,-282.5 358.5,-282.5 358.5,-252.5 43.5,-252.5"/>
<text text-anchor="start" x="50.5" y="-263.9" font-family="Arial" font-size="14.00" fill="#000000">updated_at    </text>
<text text-anchor="start" x="154.7468" y="-263.9" font-family="Arial" font-size="14.00" fill="#666666">[datetime]</text>
<polygon fill="none" stroke="#000000" points="43.5,-222.5 43.5,-252.5 358.5,-252.5 358.5,-222.5 43.5,-222.5"/>
<text text-anchor="start" x="50.5" y="-233.9" font-family="Arial" font-size="14.00" fill="#000000">created_at    </text>
<text text-anchor="start" x="150.8422" y="-233.9" font-family="Arial" font-size="14.00" fill="#666666">[datetime]</text>
<polygon fill="none" stroke="#000000" points="43.5,-192.5 43.5,-222.5 358.5,-222.5 358.5,-192.5 43.5,-192.5"/>
<text text-anchor="start" x="50.5" y="-203.9" font-family="Arial" font-size="14.00" fill="#000000">image    </text>
<text text-anchor="start" x="122.8198" y="-203.9" font-family="Arial" font-size="14.00" fill="#666666">[varchar(255)]</text>
<polygon fill="none" stroke="#000000" points="43.5,-162.5 43.5,-192.5 358.5,-192.5 358.5,-162.5 43.5,-162.5"/>
<text text-anchor="start" x="50.5" y="-173.9" font-family="Arial" font-size="14.00" fill="#000000">sidebar    </text>
<text text-anchor="start" x="130.6024" y="-173.9" font-family="Arial" font-size="14.00" fill="#666666">[varchar(15)]</text>
<polygon fill="none" stroke="#000000" points="43.5,-132.5 43.5,-162.5 358.5,-162.5 358.5,-132.5 43.5,-132.5"/>
<text text-anchor="start" x="50.5" y="-143.9" font-family="Arial" font-size="14.00" fill="#000000">vsens    </text>
<text text-anchor="start" x="121.27" y="-143.9" font-family="Arial" font-size="14.00" fill="#666666">[tinyint(1)]</text>
<polygon fill="none" stroke="#000000" points="43.5,-102.5 43.5,-132.5 358.5,-132.5 358.5,-102.5 43.5,-102.5"/>
<text text-anchor="start" x="50.5" y="-113.9" font-family="Arial" font-size="14.00" fill="#000000">activation_selector    </text>
<text text-anchor="start" x="200.6178" y="-113.9" font-family="Arial" font-size="14.00" fill="#666666">[varchar(255)]</text>
<polygon fill="none" stroke="#000000" points="43.5,-72.5 43.5,-102.5 358.5,-102.5 358.5,-72.5 43.5,-72.5"/>
<text text-anchor="start" x="50.5" y="-83.9" font-family="Arial" font-size="14.00" fill="#000000">remember_selector    </text>
<text text-anchor="start" x="205.2658" y="-83.9" font-family="Arial" font-size="14.00" fill="#666666">[varchar(255)]</text>
<polygon fill="none" stroke="#000000" points="43.5,-42.5 43.5,-72.5 358.5,-72.5 358.5,-42.5 43.5,-42.5"/>
<text text-anchor="start" x="50.4811" y="-53.9" font-family="Arial" font-size="14.00" fill="#000000">forgotten_password_selector    </text>
<text text-anchor="start" x="264.3997" y="-53.9" font-family="Arial" font-size="14.00" fill="#666666">[varchar(255)]</text>
</g>
<!-- users_groups&#45;&gt;users -->
<g id="edge1" class="edge">
<title>users_groups:user_id&#45;&gt;users:id</title>
<path fill="none" stroke="#000000" d="M249.3096,-1085.9299C222.6833,-1076.4934 238.6781,-1026.7275 259.5,-997 286.3598,-958.6522 331.6402,-999.3478 358.5,-961 382.3403,-926.9632 400.0556,-867.5 358.5,-867.5"/>
<polygon fill="#000000" stroke="#000000" points="249.6166,-1085.9771 258.8147,-1091.9475 254.5583,-1086.7385 259.5,-1087.5 259.5,-1087.5 259.5,-1087.5 254.5583,-1086.7385 260.1853,-1083.0525 249.6166,-1085.9771 249.6166,-1085.9771"/>
<text text-anchor="start" x="26.445" y="-1097.5" font-family="Arial" font-size="10.00" fill="#000000">FOREIGN KEY (user_id) REFERENCES users (id)</text>
</g>
<!-- groups -->
<g id="node3" class="node">
<title>groups</title>
<polygon fill="#efefef" stroke="transparent" points="462.5,-507.5 462.5,-542.5 671.5,-542.5 671.5,-507.5 462.5,-507.5"/>
<polygon fill="none" stroke="#000000" points="462.5,-507.5 462.5,-542.5 671.5,-542.5 671.5,-507.5 462.5,-507.5"/>
<text text-anchor="start" x="475.7075" y="-520.3" font-family="Arial Bold" font-size="18.00" fill="#000000">groups</text>
<text text-anchor="start" x="530.7245" y="-520.3" font-family="Arial" font-size="14.00" fill="#000000">    </text>
<text text-anchor="start" x="564.9293" y="-520.3" font-family="Arial" font-size="14.00" fill="#666666">[BASE TABLE]</text>
<polygon fill="none" stroke="#000000" points="462.5,-477.5 462.5,-507.5 671.5,-507.5 671.5,-477.5 462.5,-477.5"/>
<text text-anchor="start" x="469.3864" y="-488.9" font-family="Arial" font-size="14.00" fill="#000000">id    </text>
<text text-anchor="start" x="514.4804" y="-488.9" font-family="Arial" font-size="14.00" fill="#666666">[mediumint(8) unsigned]</text>
<polygon fill="none" stroke="#000000" points="462.5,-447.5 462.5,-477.5 671.5,-477.5 671.5,-447.5 462.5,-447.5"/>
<text text-anchor="start" x="469.5" y="-458.9" font-family="Arial" font-size="14.00" fill="#000000">name    </text>
<text text-anchor="start" x="538.7132" y="-458.9" font-family="Arial" font-size="14.00" fill="#666666">[varchar(20)]</text>
<polygon fill="none" stroke="#000000" points="462.5,-417.5 462.5,-447.5 671.5,-447.5 671.5,-417.5 462.5,-417.5"/>
<text text-anchor="start" x="469.5" y="-428.9" font-family="Arial" font-size="14.00" fill="#000000">description    </text>
<text text-anchor="start" x="571.3822" y="-428.9" font-family="Arial" font-size="14.00" fill="#666666">[varchar(100)]</text>
</g>
<!-- users_groups&#45;&gt;groups -->
<g id="edge2" class="edge">
<title>users_groups:group_id&#45;&gt;groups:id</title>
<path fill="none" stroke="#000000" d="M519.5004,-1056.0736C618.3357,-1024.8795 340.2019,-492.5 462.5,-492.5"/>
<polygon fill="#000000" stroke="#000000" points="519.3998,-1056.0878 508.8645,-1053.0451 514.4499,-1056.7939 509.5,-1057.5 509.5,-1057.5 509.5,-1057.5 514.4499,-1056.7939 510.1355,-1061.9549 519.3998,-1056.0878 519.3998,-1056.0878"/>
<text text-anchor="start" x="516.327" y="-1067.5" font-family="Arial" font-size="10.00" fill="#000000">FOREIGN KEY (group_id) REFERENCES groups (id)</text>
</g>
</g>
</svg>
