<?xml version="1.0" encoding="UTF-8" standalone="no"?>
<!DOCTYPE svg PUBLIC "-//W3C//DTD SVG 1.1//EN"
 "http://www.w3.org/Graphics/SVG/1.1/DTD/svg11.dtd">
<!-- Generated by graphviz version 2.40.1 (20161225.0304)
 -->
<!-- Title: wholesale Pages: 1 -->
<svg width="321pt" height="465pt"
 viewBox="0.00 0.00 321.00 465.00" xmlns="http://www.w3.org/2000/svg" xmlns:xlink="http://www.w3.org/1999/xlink">
<g id="graph0" class="graph" transform="scale(1 1) rotate(0) translate(4 461)">
<title>wholesale</title>
<polygon fill="#ffffff" stroke="transparent" points="-4,4 -4,-461 317,-461 317,4 -4,4"/>
<!-- wholesale -->
<g id="node1" class="node">
<title>wholesale</title>
<polygon fill="#efefef" stroke="transparent" points="46.5,-375.5 46.5,-410.5 267.5,-410.5 267.5,-375.5 46.5,-375.5"/>
<polygon fill="none" stroke="#000000" points="46.5,-375.5 46.5,-410.5 267.5,-410.5 267.5,-375.5 46.5,-375.5"/>
<text text-anchor="start" x="53.2092" y="-388.3" font-family="Arial Bold" font-size="18.00" fill="#000000">wholesale</text>
<text text-anchor="start" x="133.2228" y="-388.3" font-family="Arial" font-size="14.00" fill="#000000">    </text>
<text text-anchor="start" x="167.4276" y="-388.3" font-family="Arial" font-size="14.00" fill="#666666">[BASE TABLE]</text>
<polygon fill="none" stroke="#000000" points="46.5,-345.5 46.5,-375.5 267.5,-375.5 267.5,-345.5 46.5,-345.5"/>
<text text-anchor="start" x="53.5" y="-356.9" font-family="Arial" font-size="14.00" fill="#000000">id </text>
<text text-anchor="start" x="68.2798" y="-356.9" font-family="Arial" font-size="14.00" fill="#666666">[int(11)]</text>
<polygon fill="none" stroke="#000000" points="46.5,-315.5 46.5,-345.5 267.5,-345.5 267.5,-315.5 46.5,-315.5"/>
<text text-anchor="start" x="53.5" y="-326.9" font-family="Arial" font-size="14.00" fill="#000000">vendor_id </text>
<text text-anchor="start" x="118.8534" y="-326.9" font-family="Arial" font-size="14.00" fill="#666666">[varchar(25)]</text>
<polygon fill="none" stroke="#000000" points="46.5,-285.5 46.5,-315.5 267.5,-315.5 267.5,-285.5 46.5,-285.5"/>
<text text-anchor="start" x="53.5" y="-296.9" font-family="Arial" font-size="14.00" fill="#000000">description </text>
<text text-anchor="start" x="125.068" y="-296.9" font-family="Arial" font-size="14.00" fill="#666666">[varchar(255)]</text>
<polygon fill="none" stroke="#000000" points="46.5,-255.5 46.5,-285.5 267.5,-285.5 267.5,-255.5 46.5,-255.5"/>
<text text-anchor="start" x="53.5" y="-266.9" font-family="Arial" font-size="14.00" fill="#000000">bruto </text>
<text text-anchor="start" x="89.2896" y="-266.9" font-family="Arial" font-size="14.00" fill="#666666">[decimal(7,2)]</text>
<polygon fill="none" stroke="#000000" points="46.5,-225.5 46.5,-255.5 267.5,-255.5 267.5,-225.5 46.5,-225.5"/>
<text text-anchor="start" x="53.5" y="-236.9" font-family="Arial" font-size="14.00" fill="#000000">btw </text>
<text text-anchor="start" x="79.1704" y="-236.9" font-family="Arial" font-size="14.00" fill="#666666">[smallint(6)]</text>
<polygon fill="none" stroke="#000000" points="46.5,-195.5 46.5,-225.5 267.5,-225.5 267.5,-195.5 46.5,-195.5"/>
<text text-anchor="start" x="53.5" y="-206.9" font-family="Arial" font-size="14.00" fill="#000000">sell_price </text>
<text text-anchor="start" x="116.5014" y="-206.9" font-family="Arial" font-size="14.00" fill="#666666">[decimal(7,2)]</text>
<polygon fill="none" stroke="#000000" points="46.5,-165.5 46.5,-195.5 267.5,-195.5 267.5,-165.5 46.5,-165.5"/>
<text text-anchor="start" x="53.5" y="-176.9" font-family="Arial" font-size="14.00" fill="#000000">distributor </text>
<text text-anchor="start" x="118.8366" y="-176.9" font-family="Arial" font-size="14.00" fill="#666666">[varchar(255)]</text>
<polygon fill="none" stroke="#000000" points="46.5,-135.5 46.5,-165.5 267.5,-165.5 267.5,-135.5 46.5,-135.5"/>
<text text-anchor="start" x="53.5" y="-146.9" font-family="Arial" font-size="14.00" fill="#000000">CNK </text>
<text text-anchor="start" x="86.9404" y="-146.9" font-family="Arial" font-size="14.00" fill="#666666">[varchar(255)]</text>
<polygon fill="none" stroke="#000000" points="46.5,-105.5 46.5,-135.5 267.5,-135.5 267.5,-105.5 46.5,-105.5"/>
<text text-anchor="start" x="53.5" y="-116.9" font-family="Arial" font-size="14.00" fill="#000000">VHB </text>
<text text-anchor="start" x="86.1704" y="-116.9" font-family="Arial" font-size="14.00" fill="#666666">[varchar(255)]</text>
<polygon fill="none" stroke="#000000" points="46.5,-75.5 46.5,-105.5 267.5,-105.5 267.5,-75.5 46.5,-75.5"/>
<text text-anchor="start" x="53.5" y="-86.9" font-family="Arial" font-size="14.00" fill="#000000">updated_at </text>
<text text-anchor="start" x="127.4326" y="-86.9" font-family="Arial" font-size="14.00" fill="#666666">[datetime]</text>
<polygon fill="none" stroke="#000000" points="46.5,-45.5 46.5,-75.5 267.5,-75.5 267.5,-45.5 46.5,-45.5"/>
<text text-anchor="start" x="53.5" y="-56.9" font-family="Arial" font-size="14.00" fill="#000000">created_at </text>
<text text-anchor="start" x="123.528" y="-56.9" font-family="Arial" font-size="14.00" fill="#666666">[datetime]</text>
<polygon fill="none" stroke="#000000" stroke-width="3" points="44.5,-44.5 44.5,-412.5 268.5,-412.5 268.5,-44.5 44.5,-44.5"/>
</g>
</g>
</svg>
