<?xml version="1.0" encoding="UTF-8" standalone="no"?>
<!-- Generator: Adobe Illustrator 24.1.3, SVG Export Plug-In . SVG Version: 6.00 Build 0)  -->

<svg
   version="1.1"
   id="Layer_1"
   x="0px"
   y="0px"
   viewBox="0 0 1440 195"
   xml:space="preserve"
   sodipodi:docname="bg-waves-2.svg"
   inkscape:version="1.2.2 (b0a8486541, 2022-12-01)"
   width="1440"
   height="195"
   xmlns:inkscape="http://www.inkscape.org/namespaces/inkscape"
   xmlns:sodipodi="http://sodipodi.sourceforge.net/DTD/sodipodi-0.dtd"
   xmlns:xlink="http://www.w3.org/1999/xlink"
   xmlns="http://www.w3.org/2000/svg"
   xmlns:svg="http://www.w3.org/2000/svg"><defs
   id="defs50"><linearGradient
     inkscape:collect="always"
     id="linearGradient5198"><stop
       style="stop-color:#f0f4fa;stop-opacity:0.7490316;"
       offset="0"
       id="stop5194" /><stop
       style="stop-color:#f1fbfa;stop-opacity:1;"
       offset="1"
       id="stop5196" /></linearGradient><linearGradient
     inkscape:collect="always"
     xlink:href="#linearGradient5198"
     id="linearGradient5200"
     x1="677.46118"
     y1="6.5150614"
     x2="677.46118"
     y2="200.51344"
     gradientUnits="userSpaceOnUse" /></defs><sodipodi:namedview
   id="namedview48"
   pagecolor="#ffffff"
   bordercolor="#000000"
   borderopacity="0.25"
   inkscape:showpageshadow="2"
   inkscape:pageopacity="0.0"
   inkscape:pagecheckerboard="0"
   inkscape:deskcolor="#d1d1d1"
   showgrid="false"
   inkscape:zoom="0.67118056"
   inkscape:cx="508.80497"
   inkscape:cy="210.0776"
   inkscape:window-width="2550"
   inkscape:window-height="1369"
   inkscape:window-x="0"
   inkscape:window-y="35"
   inkscape:window-maximized="1"
   inkscape:current-layer="Layer_1" />
<style
   type="text/css"
   id="style43">
	.st0{fill:#EFF3F9;}
</style>
<path
   class="st0"
   d="M 0,0 H 26.7 C 53.3,0 107,0 160,10.8 213.3,21.6 267,43.3 320,57.7 373.3,72.4 427,79.2 480,72.2 533.3,65 587,43.3 640,39.7 c 53.3,-3.9 107,11 160,32.5 53.3,21.9 107,50.3 160,50.5 53.3,-0.2 107,-28.6 160,-46.9 53.3,-18.3 107,-25.1 160,-32.5 53.3,-7.4 107,-14.2 133,-18.1 l 27,-3.6 V 195 h -26.7 c -26.6,0 -80.3,0 -133.3,0 -53.3,0 -107,0 -160,0 -53.3,0 -107,0 -160,0 -53.3,0 -107,0 -160,0 -53.3,0 -107,0 -160,0 -53.3,0 -107,0 -160,0 -53.3,0 -107,0 -160,0 -53.3,0 -107,0 -160,0 -53.3,0 -107,0 -133,0 H 0 Z"
   id="path45"
   inkscape:label="background"
   style="display:inline;fill:url(#linearGradient5200);fill-opacity:1" />
<g
   inkscape:groupmode="layer"
   id="layer1"
   inkscape:label="Layer 1"><path
     class="st0"
     d="m 0,38.345672 h 26.7 c 26.6,0 80.3,0 133.3,10.8 53.3,10.8 107,32.5 160,46.900004 53.3,14.700004 107,21.500004 160,14.500004 53.3,-7.2 107,-28.900008 160,-32.500008 53.3,-3.9 107,11.000004 160,32.500008 53.3,21.9 107,50.29999 160,50.49999 53.3,-0.2 107,-28.59999 160,-46.89999 53.3,-18.300004 107,-25.100004 160,-32.500008 53.3,-7.4 107,-14.2 133,-18.1 l 27,-3.6 V 195 H 1413.3 1280 1120 960 800 640 480 320 160 27 0 Z"
     id="path45-7"
     style="display:none;fill:#edeffd;fill-opacity:1"
     inkscape:label="layer_1"
     sodipodi:nodetypes="csccccccccccccccccccccccc" /><path
     class="st0"
     d="m 0,64.770745 h 26.7 c 26.6,0 80.3,0 133.29999,10.8 53.3,10.8 107,32.499995 160.00001,46.900005 53.3,14.7 107,21.5 160,14.5 53.29999,-7.2 107,-28.90001 160,-32.50001 53.29999,-3.9 107,11.00001 160,32.50001 53.29999,21.9 107,50.29999 160,50.49999 53.3,-0.2 107,-28.59999 160,-46.89999 53.3,-18.3 107,-25.1 160,-32.50001 53.3,-7.4 107,-14.199995 133,-18.099995 l 27,-3.6 V 194.65433 H 1413.3 1280 1120 960 800 640 480 320 159.99999 27 0 Z"
     id="path45-7-5"
     style="display:none;fill:#f1f9f3;fill-opacity:1"
     inkscape:label="layer_2"
     sodipodi:nodetypes="csccccccccccccccccccccccc" /></g></svg>
