<?xml version="1.0" encoding="UTF-8" standalone="no"?>
<svg
   width="524.67001"
   height="418.27099"
   viewBox="0 0 524.67001 418.27099"
   version="1.1"
   id="svg425"
   sodipodi:docname="error.svg"
   inkscape:version="1.2.2 (b0a8486541, 2022-12-01)"
   xmlns:inkscape="http://www.inkscape.org/namespaces/inkscape"
   xmlns:sodipodi="http://sodipodi.sourceforge.net/DTD/sodipodi-0.dtd"
   xmlns="http://www.w3.org/2000/svg"
   xmlns:svg="http://www.w3.org/2000/svg">
  <defs
     id="defs429" />
  <sodipodi:namedview
     id="namedview427"
     pagecolor="#ffffff"
     bordercolor="#000000"
     borderopacity="0.25"
     inkscape:showpageshadow="2"
     inkscape:pageopacity="0.0"
     inkscape:pagecheckerboard="0"
     inkscape:deskcolor="#d1d1d1"
     showgrid="false"
     inkscape:zoom="1.7361918"
     inkscape:cx="295.18628"
     inkscape:cy="243.63668"
     inkscape:window-width="1814"
     inkscape:window-height="1369"
     inkscape:window-x="0"
     inkscape:window-y="35"
     inkscape:window-maximized="0"
     inkscape:current-layer="svg425" />
  <path
     d="M0,417.0814c.00023,.66003,.53044,1.18982,1.19047,1.18959l522.28995-.18066c.65997-.00023,1.18982-.53038,1.18959-1.19041-.00023-.65997-.53044-1.18982-1.19041-1.18959l-522.28995,.18066c-.66003,.00023-1.18988,.53044-1.18965,1.19041Z"
     fill="#ccc"
     id="path381" />
  <g
     id="g1258"
     inkscape:export-filename="../../../var/www/html/alies/assets/img/stock_error.png"
     inkscape:export-xdpi="96"
     inkscape:export-ydpi="96">
    <path
       d="M251.74443,416.41995l-159.45702,.05516c-8.01074,.00277-15.18649-4.13684-19.19426-11.07295-2.00413-3.46855-3.00642-7.27337-3.00774-11.07904-.00132-3.80518,.99882-7.61119,3.00007-11.08063l79.67786-145.04905c4.00346-6.93937,11.17634-11.08346,19.18708-11.08623s15.18649,4.13635,19.19475,11.07295l79.78843,145.01196c1.99876,3.45927,2.99861,7.25971,2.99894,11.06293-.00015,3.80322-.99981,7.60874-3.00154,11.07868-4.00297,6.93889-11.17585,11.08346-19.1866,11.08623h.00002Zm-179.65463-22.09948c-.00026,3.46387,17.5953-4.00023,19.41817-.8451,3.64623,6.31026-6.50934,21.00225,.77874,20.99973,0,0,173.27016-3.828,176.91202-10.14078,1.82069-3.15639,2.73062-6.61911,2.72942-10.08102s-.91353-6.92351-2.73688-10.07864l-79.78845-145.01196c-3.63597-6.2922-10.16364-10.05801-17.45172-10.05549-7.28467,.00252-99.86105,161.74891-99.86132,165.21326h.00002Z"
       fill="#3f3d56"
       id="path377" />
    <g
       id="g421">
      <circle
         cx="218.47958"
         cy="311.43145"
         r="73"
         fill="#ff6393"
         id="circle413" />
      <g
         id="g419">
        <circle
           cx="218.49274"
           cy="349.47878"
           r="6.70264"
           fill="#fff"
           id="circle415" />
        <path
           d="M218.4641,266.68145c-.6157,4.0912,.48747,4.94727,.49357,22.58508,.0061,17.63782,3.66579,41.28574-.47148,41.28717s-5.65047-48.80276-20.01681-53.12218c-16.89088-5.07846,21.98785-23.99409,19.99471-10.75007Z"
           fill="#fff"
           id="path417" />
      </g>
    </g>
    <path
       d="M120.50313,348.70219l-6.59532,13.93527c7.97328-5.71745,20.42715-10.64598,30.3376-13.28567-9.23403-4.46037-20.53313-11.65189-27.2835-18.77194l3.7934,14.72434c-44.47393-9.0585-76.41138-43.17661-76.4249-82.25924l-1.60648-.5527c.01412,40.82281,31.50971,76.96121,77.7792,86.20995Z"
       fill="#3f3d56"
       id="path423" />
  </g>
</svg>
