<?xml version="1.0" encoding="UTF-8" standalone="no"?>
<svg
   data-name="Layer 1"
   width="854.55666"
   height="577.89722"
   viewBox="0 0 854.55666 577.89722"
   version="1.1"
   id="svg618"
   sodipodi:docname="lab_numbers.svg"
   inkscape:version="1.2.2 (b0a8486541, 2022-12-01)"
   xmlns:inkscape="http://www.inkscape.org/namespaces/inkscape"
   xmlns:sodipodi="http://sodipodi.sourceforge.net/DTD/sodipodi-0.dtd"
   xmlns="http://www.w3.org/2000/svg"
   xmlns:svg="http://www.w3.org/2000/svg">
  <defs
     id="defs622" />
  <sodipodi:namedview
     id="namedview620"
     pagecolor="#ffffff"
     bordercolor="#000000"
     borderopacity="0.25"
     inkscape:showpageshadow="2"
     inkscape:pageopacity="0.0"
     inkscape:pagecheckerboard="0"
     inkscape:deskcolor="#d1d1d1"
     showgrid="false"
     inkscape:zoom="1.1228558"
     inkscape:cx="420.35673"
     inkscape:cy="345.10219"
     inkscape:window-width="1499"
     inkscape:window-height="1236"
     inkscape:window-x="1140"
     inkscape:window-y="101"
     inkscape:window-maximized="0"
     inkscape:current-layer="svg618" />
  <rect
     x="151.55666"
     y="268"
     width="110"
     height="123"
     fill="#ccc"
     id="rect522" />
  <polygon
     points="95.557 576 39.557 576 33.557 528 101.557 528 95.557 576"
     fill="#e6e6e6"
     id="polygon524" />
  <path
     d="M380.72875,702.28371,378.839,728.11866a8.22428,8.22428,0,0,0,8.69988,8.80928l13.26993-.80373a4.19488,4.19488,0,0,0,3.8153-5.2044L397.25817,701.457Z"
     transform="translate(-172.72167 -161.05139)"
     fill="#e6e6e6"
     id="path526" />
  <path
     d="M491.72431,717.56077c15.6176,3.6534,26.77411,8.84633,34.103,15.87434a15.03539,15.03539,0,0,0,9.62359,4.1254c4.59653.24174,8.35492-.27349,11.17944-1.53511h.00045a4.43019,4.43019,0,0,0,2.62469-3.65076,4.50814,4.50814,0,0,0-1.88846-4.16687l-37.03954-26.3546-15.73318,6.294-3.67016,3.67016a3.63415,3.63415,0,0,0,.8002,5.74346Z"
     transform="translate(-172.72167 -161.05139)"
     fill="#e6e6e6"
     id="path528" />
  <path
     d="M443.66188,295.74594l-105.87329-.98031c.26623-15.42064,3.85407-30.56331,11.69669-44.11378,5.15076-8.89946,5.03948-18.58474,3.7982-26.7444-1.91555-12.592,2.53886-25.47548,12.43708-33.49119a39.916,39.916,0,0,1,26.84266-8.88134l2.0558.08566a40.00777,40.00777,0,0,1,32.87054,19.76983,33.32736,33.32736,0,0,1,3.96134,20.30073c-.67106,6.60129.93466,13.26982,4.6906,20.00186C442.62144,256.47558,444.02465,275.3918,443.66188,295.74594Z"
     transform="translate(-172.72167 -161.05139)"
     fill="#2f2e41"
     id="path530" />
  <path
     d="M514.49653,703.22772l-20.77878,5.42055-101.1836-220.4357,6.324,215.01515H378.07935c-22.2035-101.15879-62.29053-217.90681-44.26782-254.76585l107.50757-6.324Z"
     transform="translate(-172.72167 -161.05139)"
     fill="#6c63ff"
     id="path532" />
  <circle
     cx="218.90906"
     cy="69.68505"
     r="28.00618"
     fill="#ffb9b9"
     id="circle534" />
  <path
     d="M416.0232,282.23167l-46.07467-2.71028c4.51541-10.36377,6.31912-20.34363,4.51712-29.813H408.7958C408.718,256.979,412.33611,269.55581,416.0232,282.23167Z"
     transform="translate(-172.72167 -161.05139)"
     fill="#ffb9b9"
     id="path536" />
  <polygon
     points="272.211 289.217 171.028 296.445 181.417 117.115 199.034 112.146 218.909 116.663 238.784 106.725 251.432 111.243 272.211 289.217"
     fill="#6c63ff"
     id="polygon538" />
  <path
     d="M360.91428,579.45849l-69.112-15.80994c20.5506-68.14818,57.57349-224.05122,45.623-279.61l36.137-16.26165Z"
     transform="translate(-172.72167 -161.05139)"
     fill="#e6e6e6"
     id="path540" />
  <path
     d="M327.48755,382.51184l-26.19932-16.26165,22.3434-65.4394a30.87113,30.87113,0,0,1,13.49426-16.02839l7.52674-4.35758-4.51713,65.95Z"
     transform="translate(-172.72167 -161.05139)"
     fill="#e6e6e6"
     id="path542" />
  <path
     d="M505.01057,564.552c-21.81327,12.62013-76.33909,19.65509-100.28018,10.8411-1.76169-61.57277-5.21664-235.739,5.87226-309.42306l39.7507,16.26165-3.6137,48.78495C427.73558,372.74951,482.91928,518.10538,505.01057,564.552Z"
     transform="translate(-172.72167 -161.05139)"
     fill="#e6e6e6"
     id="path544" />
  <polygon
     points="329.127 213.33 304.734 205.199 272.211 168.158 277.632 121.18 331.837 197.068 329.127 213.33"
     fill="#e6e6e6"
     id="polygon546" />
  <path
     d="M425.40285,409.54533a6.78537,6.78537,0,0,0,8.10524,5.11221l20.706-4.68917-2.99259-13.21656-20.70643,4.68828a6.77693,6.77693,0,0,0-5.11221,8.10524Z"
     transform="translate(-172.72167 -161.05139)"
     fill="#ffb9b9"
     id="path548" />
  <path
     d="M416.0232,223.509c-15.55574-6.3965-30.9192-6.85936-46.07467-.90342l-6.324-22.58563h57.8192Z"
     transform="translate(-172.72167 -161.05139)"
     fill="#2f2e41"
     id="path550" />
  <path
     d="M444.02938,394.25637l11.74452,21.6822c19.7541-5.50955,36.87412-22.87878,53.30208-43.3644l-4.51713-14.4548-28.00617,7.2274Z"
     transform="translate(-172.72167 -161.05139)"
     fill="#e6e6e6"
     id="path552" />
  <path
     d="M435.44684,349.53683h-3.6137c0-51.11057-10.52349-86.7288-20.77877-86.7288l-.90343-3.6137c9.197,0,15.06047,14.824,18.35964,27.26023C432.9836,303.31394,435.44684,325.71693,435.44684,349.53683Z"
     transform="translate(-172.72167 -161.05139)"
     fill="#3f3d56"
     id="path554" />
  <path
     d="M352.33174,336.88888H348.718c0-46.80915,10.59628-75.8877,26.19933-75.8877l-.90343,3.6137C363.22136,264.61488,352.33174,286.96274,352.33174,336.88888Z"
     transform="translate(-172.72167 -161.05139)"
     fill="#3f3d56"
     id="path556" />
  <circle
     cx="260.91832"
     cy="189.38886"
     r="9.03425"
     fill="#3f3d56"
     id="circle558" />
  <path
     d="M337.87694,358.57108h-3.6137c0-12.95189,7.29489-23.48905,16.26165-23.48905v3.6137C343.5507,338.69573,337.87694,347.61176,337.87694,358.57108Z"
     transform="translate(-172.72167 -161.05139)"
     fill="#3f3d56"
     id="path560" />
  <path
     d="M366.78654,358.57108h-3.6137c0-10.95932-5.67376-19.87535-12.64795-19.87535V335.082C359.49165,335.082,366.78654,345.61919,366.78654,358.57108Z"
     transform="translate(-172.72167 -161.05139)"
     fill="#3f3d56"
     id="path562" />
  <circle
     cx="192.25802"
     cy="198.42311"
     r="3.6137"
     fill="#3f3d56"
     id="circle564" />
  <circle
     cx="163.34842"
     cy="198.42311"
     r="3.6137"
     fill="#3f3d56"
     id="circle566" />
  <polygon
     points="118.177 165.193 140.724 169.219 192.258 242.495 164.88 236.053 118.177 165.193"
     fill="#6c63ff"
     id="polygon568" />
  <path
     d="M286.8996,325.34727a1.91768,1.91768,0,0,0-1.5735,2.971l48.17135,73.08788a1.91143,1.91143,0,0,0,1.16016.81035l22.4127,5.27321a1.91439,1.91439,0,0,0,2.00447-2.9648L306.1856,329.32314a1.90335,1.90335,0,0,0-1.22941-.783l-17.69531-3.16023A2.07607,2.07607,0,0,0,286.8996,325.34727Z"
     transform="translate(-172.72167 -161.05139)"
     fill="#3f3d56"
     id="path570" />
  <path
     d="M316.94907,377.60432l1.33881,13.48521,21.12638-2.09711a6.77573,6.77573,0,0,0-1.33837-13.48521Z"
     transform="translate(-172.72167 -161.05139)"
     fill="#ffb9b9"
     id="path572" />
  <path
     d="M298.57839,376.04229a17.42694,17.42694,0,0,0,17.40637,17.31065h3.47387l2.529-21.07565-20.93979-7.53839Z"
     transform="translate(-172.72167 -161.05139)"
     fill="#e6e6e6"
     id="path574" />
  <rect
     x="442.55666"
     width="412"
     height="217"
     fill="#e6e6e6"
     id="rect576" />
  <path
     d="M627.27833,366.05139h388v-193h-388Z"
     fill="#fff"
     id="path578"
     transform="translate(-172.72167 -161.05139)" />
  <rect
     x="484.55666"
     y="40"
     width="138"
     height="138"
     fill="#3f3d56"
     id="rect580" />
  <rect
     x="530.55666"
     y="37"
     width="40"
     height="6"
     fill="#e6e6e6"
     id="rect588" />
  <rect
     x="660.55666"
     y="40"
     width="138"
     height="138"
     fill="#3f3d56"
     id="rect590" />
  <rect
     x="706.55666"
     y="37"
     width="40"
     height="6"
     fill="#e6e6e6"
     id="rect610" />
  <path
     d="M197.89809,671.2944c14.41965,19.311,44.352,21.34353,44.352,21.34353s6.55352-29.27679-7.86613-48.5878-44.352-21.34353-44.352-21.34353S183.47844,651.98339,197.89809,671.2944Z"
     transform="translate(-172.72167 -161.05139)"
     fill="#e6e6e6"
     id="path612" />
  <path
     d="M271.35481,678.554c-9.51509,12.74275-29.26658,14.08395-29.26658,14.08395s-4.32447-19.31887,5.19063-32.06162,29.26658-14.084,29.26658-14.084S280.86991,665.81122,271.35481,678.554Z"
     transform="translate(-172.72167 -161.05139)"
     fill="#e6e6e6"
     id="path614" />
  <rect
     y="575.6565"
     width="519.55666"
     height="2.24072"
     fill="#3f3d56"
     id="rect616" />
  <path
     d="m 579.21786,162.50905 -47.53011,-1.35042 c 0,0 3.57761,-21.40182 -7.90097,-27.34098 -7.8237,-4.05126 -14.76729,-22.97395 -12.79204,-35.849976 0.0269,-0.17132 0.0537,-0.34264 0.084,-0.51061 1.00106,-5.76448 3.86314,-10.22893 9.33537,-11.44162 17.68984,-3.91689 30.31392,-0.88013 30.31392,-0.88013 0,0 2.92256,0.0369 7.25264,0.84989 0.15452,0.0269 0.30905,0.0571 0.46358,0.0907 12.25792,2.40187 34.9161,10.95454 35.897,41.322206 1.35043,41.72196 -15.12337,35.10423 -15.12337,35.10423 z"
     fill="#3f3d56"
     id="path178"
     style="fill:#6c63ff;fill-opacity:1;stroke-width:0.335926" />
  <path
     d="m 557.98065,85.988564 c -0.0806,2.1768 -0.57443,4.34016 -1.47471,6.39603 -1.86775,4.26289 -5.27404,7.51801 -9.58732,9.167406 -12.9197,4.94482 -27.99604,0.0403 -35.62155,-5.277386 -0.0302,0.16796 -0.6349,3.35589 -0.66177,3.52721 3.37605,2.311166 19.90023,4.538356 23.03441,4.538356 4.76007,0 9.34209,-0.78943 13.41687,-2.35148 4.43086,-1.69642 7.92785,-5.042236 9.84598,-9.419346 0.91708,-2.08946 1.42097,-4.28306 1.51167,-6.49345 -0.15453,-0.0336 -0.30906,-0.0638 -0.46358,-0.0907 0,0 0,0 0,0 z"
     fill="#6c63ff"
     id="path180"
     style="stroke-width:0.335926;fill:#848484;fill-opacity:1" />
  <path
     d="m 561.49443,88.759954 -7.57512,-19.05034 c 0,0 9.0935,-15.58695 1.94837,-17.31696 -7.14514,-1.73338 -14.50527,7.57512 -14.50527,7.57512 0,0 -13.63858,-4.76343 -18.83199,-0.86669 0,0 -8.66016,-12.12355 -13.85357,-9.74184 -5.19677,2.38171 1.84759,19.54415 1.84759,19.54415 0,0 -10.72274,15.74147 -2.49593,24.83162 8.22682,9.093496 39.18236,16.453626 53.46928,-4.97842 v 0 z"
     fill="#3f3d56"
     id="path182"
     style="fill:#6c63ff;fill-opacity:1;stroke-width:0.335926" />
  <path
     d="m 577.74315,151.10774 c 2.57991,1.14886 5.27403,2.31789 8.09581,2.20703 2.82177,-0.11086 5.788,-1.92821 6.22806,-4.71639 0.22843,-1.44113 -0.22171,-2.98302 0.32921,-4.33345 0.74239,-1.81399 3.13418,-2.51608 4.99185,-1.89462 1.86103,0.62147 3.22489,2.22719 4.20579,3.92362 1.83415,3.17785 2.56647,7.35005 0.6013,10.44728 -1.70314,2.68405 -4.93474,3.9001 -7.93792,4.94147 -4.00423,1.38737 -8.47204,2.76131 -12.35198,1.05816 -3.9001,-1.71322 -6.02651,-6.6614 -4.58203,-10.66899"
     fill="#3f3d56"
     id="path186"
     style="fill:#6c63ff;fill-opacity:1;stroke-width:0.335926" />
  <path
     d="m 535.06716,80.197214 c 0,0 -4.66264,-1.86439 -7.68933,0.46693 l 3.49698,5.36138 c 0,0 4.19571,-5.82495 4.19571,-5.82495 z"
     fill="#6c63ff"
     id="path188"
     style="fill:#e6e6e6;fill-opacity:1;stroke-width:0.335926" />
  <path
     d="m 510.59498,104.66603 8.62321,45.91431 c 0,0 -13.0507,13.28585 3.72878,13.05071 16.77948,-0.23179 11.88505,-8.855 11.88505,-8.855 l -5.36138,-39.85422"
     fill="#3f3d56"
     id="path190"
     style="fill:#6c63ff;fill-opacity:1;stroke-width:0.335926" />
  <path
     d="m 522.5237,163.97033 c -4.54507,0 -7.29294,-1.04137 -8.17307,-3.10059 -1.60236,-3.74893 3.61456,-9.46303 4.50812,-10.40362 l -5.79807,-34.32488 0.66177,-0.11085 5.85518,34.6608 -0.12093,0.12093 c -0.0605,0.0605 -6.0265,6.19783 -4.48796,9.79224 0.78942,1.84759 3.46675,2.75123 7.97487,2.6874 6.26501,-0.0873 10.30284,-1.40081 11.68013,-3.79596 1.23957,-2.15664 -0.0705,-4.53499 -0.084,-4.55851 l -0.0302,-0.0571 -0.0101,-0.0638 -3.72877,-27.73402 0.66513,-0.0907 3.72205,27.67355 c 0.22171,0.41991 1.38066,2.84193 0.0537,5.15982 -1.52174,2.65381 -5.64691,4.0479 -12.25792,4.1386 -0.14445,0 -0.28554,0 -0.42663,0 z"
     fill="#2f2e41"
     id="path192"
     style="fill:#999999;fill-opacity:1;stroke-width:0.335926" />
  <path
     d="m 532.50069,104.66603 8.62321,45.91431 c 0,0 -13.05071,13.28585 3.72878,13.05071 16.77948,-0.23179 11.88504,-8.855 11.88504,-8.855 l -5.36137,-39.85422"
     fill="#3f3d56"
     id="path194"
     style="fill:#6c63ff;fill-opacity:1;stroke-width:0.335926" />
  <path
     d="m 544.42941,163.97033 c -4.54507,0 -7.29294,-1.04137 -8.17307,-3.10059 -1.60236,-3.74221 3.60448,-9.44959 4.50476,-10.40026 l -3.46339,-18.47591 0.66177,-0.12429 3.52722,18.81855 -0.12429,0.12429 c -0.0605,0.0605 -6.02651,6.19783 -4.48797,9.79224 0.78943,1.84759 3.47011,2.75459 7.97488,2.6874 6.26837,-0.0873 10.30955,-1.40081 11.68349,-3.80268 1.23956,-2.16336 -0.0739,-4.52827 -0.0873,-4.55179 l -0.0336,-0.0571 -5.3681,-39.91803 0.66514,-0.0907 5.35129,39.79374 c 0.22171,0.41991 1.38066,2.84193 0.0538,5.15982 -1.52174,2.65381 -5.64691,4.0479 -12.25792,4.1386 -0.14445,0 -0.28554,0 -0.42663,0 z"
     fill="#2f2e41"
     id="path196"
     style="fill:#999999;fill-opacity:1;stroke-width:0.335926" />
  <g
     id="g4300"
     transform="translate(32.505848,-183.24275)">
    <path
       d="m 666.65844,343.06865 c 1.23408,5.92361 8.26836,-1.35748 8.26836,-1.35748 l 8.39177,-0.98728 c 0,0 5.30657,0.12341 8.762,2.8384 3.45544,2.71499 5.8002,-0.86386 5.8002,-0.86386 3.893,1.29767 8.66251,1.2924 12.79317,0.87683 5.95223,-0.59885 10.72321,-5.19314 11.54126,-11.1192 4.61468,-33.42924 -20.7556,-49.85753 -20.7556,-49.85753 l -7.40451,-19.99216 c 0,0 2.34476,-5.8002 3.08522,-10.98335 0.74044,-5.18315 -4.68952,-10.11949 -11.35358,-15.05583 -2.91553,-2.15965 -6.25623,-2.00442 -9.09203,-1.14647 -3.18121,0.96245 -5.95622,2.94164 -8.00667,5.55737 -1.69872,2.16704 -4.61235,5.23614 -7.815,5.76783 -1.1082,0.18264 -2.2016,0.62198 -3.22342,1.42166 -1.05639,0.82684 -1.52286,2.20655 -1.53767,3.92193 -0.079,7.49335 6.10872,16.51451 11.53375,17.92137 6.66405,1.72771 3.08521,18.14103 3.08521,18.14103 -10.85994,15.30265 -3.20862,32.33301 -3.20862,32.33301 l -1.97454,13.82175 c 0,0 -0.12341,2.83839 1.11068,8.762 z"
       fill="#3f3d56"
       id="path3207-3"
       style="fill:#6c63ff;fill-opacity:1;stroke-width:0.246817" />
    <path
       d="m 702.94051,311.22928 -2.71498,33.81391 c 0,0 3.70225,9.37904 -8.88541,8.88541 -12.58766,-0.49364 -5.18315,-19.74535 -5.18315,-19.74535 l 3.94907,-25.17532"
       fill="#3f3d56"
       id="path3209-6"
       style="fill:#6c63ff;fill-opacity:1;stroke-width:0.246817" />
    <path
       d="m 692.27677,354.19422 c -0.30779,0 -0.62282,-0.006 -0.94629,-0.019 -2.78657,-0.10919 -4.83848,-1.1355 -6.09907,-3.05026 -3.60416,-5.4748 0.40445,-16.26678 0.68573,-17.00554 l 3.94498,-25.14977 c 0.0212,-0.13473 0.14654,-0.22536 0.28224,-0.20559 0.1345,0.0212 0.22657,0.14751 0.20561,0.28224 l -3.94908,25.17532 c -0.003,0.0171 -0.007,0.034 -0.0135,0.0504 -0.0431,0.1116 -4.25807,11.2439 -0.74334,16.58204 1.16804,1.77376 3.08762,2.72535 5.70571,2.82803 4.11008,0.16029 6.87448,-0.71659 8.21847,-2.60845 1.75833,-2.47516 0.44109,-5.90553 0.42759,-5.93999 -0.0137,-0.035 -0.0193,-0.0728 -0.0164,-0.11016 l 2.71499,-33.8139 c 0.0108,-0.1357 0.1275,-0.23477 0.26585,-0.22633 0.13595,0.0111 0.23718,0.12992 0.22633,0.26586 l -2.71065,33.75847 c 0.17933,0.48399 1.30375,3.80204 -0.50327,6.34902 -1.337,1.88463 -3.924,2.83767 -7.69591,2.83767 z"
       fill="#2f2e41"
       id="path3211-7"
       style="stroke-width:0.246817" />
    <path
       d="m 680.48018,318.14016 c 0,0 0.74045,31.34573 -14.80901,30.60528 -15.54946,-0.74045 -1.4809,-10.61312 -1.4809,-10.61312 l 1.35749,-3.82566"
       fill="#3f3d56"
       id="path3213-5"
       style="fill:#6c63ff;fill-opacity:1;stroke-width:0.246817" />
    <path
       d="m 666.20482,349.00503 c -0.18054,0 -0.36204,-0.004 -0.54546,-0.013 -4.43981,-0.21138 -6.94835,-1.20613 -7.45585,-2.9565 -0.91423,-3.15415 5.04481,-7.53322 5.7802,-8.05939 l 1.33146,-3.7519 c 0.0455,-0.12872 0.18655,-0.19572 0.31503,-0.15017 0.12847,0.0455 0.19572,0.18656 0.15016,0.31503 l -1.35749,3.82567 c -0.0171,0.0485 -0.0489,0.0901 -0.0909,0.11954 -0.0651,0.0458 -6.5104,4.61168 -5.65425,7.56383 0.44241,1.5255 2.79922,2.40044 7.00523,2.60074 2.80104,0.13474 5.25643,-0.80722 7.29363,-2.79621 7.63951,-7.45778 7.26158,-27.35666 7.25676,-27.55672 -0.003,-0.13618 0.1046,-0.24923 0.24103,-0.2526 0.12895,2.4e-4 0.24923,0.10485 0.2526,0.24103 0.0195,0.82578 0.38807,20.3125 -7.40523,27.92116 -2.00611,1.95863 -4.39835,2.94951 -7.11695,2.94951 z"
       fill="#2f2e41"
       id="path3215-3"
       style="stroke-width:0.246817" />
    <path
       d="m 656.11196,252.0895 c 1.77214,0.21226 4.54636,0.20238 6.84423,-1.33034 2.46075,-1.64134 -0.0938,-3.17161 -2.08314,-4.01325 -1.1082,0.18265 -2.2016,0.62199 -3.22343,1.42167 -1.05638,0.82683 -1.52285,2.20655 -1.53766,3.92192 z"
       fill="#2f2e41"
       id="path3217-5"
       style="fill:#353535;fill-opacity:1;stroke-width:0.246817" />
    <path
       d="m 684.74972,247.6515 c 0,0 -4.30688,-11.06144 1.8616,-11.21622 6.16848,-0.15478 11.04076,9.43086 11.04076,9.43086 0,0 15.48231,28.22165 -5.72956,26.69975 -21.21186,-1.52191 -11.07559,-12.78775 -11.07559,-12.78775 0,0 4.83801,-5.94811 3.9028,-12.12664 h -2e-5 v 0 0 c 0,0 0,0 0,0 z"
       fill="#2f2e41"
       id="path3219-6"
       style="fill:#353535;fill-opacity:1;stroke-width:0.246817" />
    <path
       d="m 708.38,330.31213 c 2.73174,1.21524 5.58589,2.45534 8.57338,2.33671 2.98749,-0.11862 6.13132,-2.04255 6.59685,-4.99593 0.24031,-1.52458 -0.23631,-3.16024 0.34742,-4.58899 0.7854,-1.92238 3.31888,-2.66373 5.28825,-2.00495 1.96936,0.65878 3.41612,2.35757 4.45345,4.15654 1.94079,3.36577 2.71847,7.78328 0.63755,11.06426 -1.80393,2.84423 -5.22532,4.1295 -8.40787,5.23189 -4.23916,1.46838 -8.97207,2.92577 -13.0798,1.12207 -4.13124,-1.81401 -6.3816,-7.0551 -4.85181,-11.29979"
       fill="#3f3d56"
       id="path3221-2"
       style="fill:#6c63ff;fill-opacity:1;stroke-width:0.246817" />
    <path
       d="m 699.26645,277.01716 c 0,0 5.42997,2.71499 2.71499,5.67679 -2.71499,2.9618 -19.49854,11.35358 -25.66896,10.11949 -6.17042,-1.23408 -7.65132,-4.93634 -7.65132,-5.9236 0,-0.98727 0.46545,-12.9299 2.43999,-12.43627 1.97454,0.49363 14.34356,11.69582 28.1653,2.56359 z"
       fill="#6c63ff"
       id="path3223-9"
       style="fill:#848484;fill-opacity:1;stroke-width:0.246817" />
  </g>
</svg>
