<?xml version="1.0" encoding="UTF-8" standalone="no"?>
<!-- Created with Inkscape (http://www.inkscape.org/) -->

<svg
   width="202.93513mm"
   height="162.04529mm"
   viewBox="0 0 202.93513 162.04529"
   version="1.1"
   id="svg5"
   inkscape:export-filename="/var/www/html/alies/assets/templates/dog.png"
   inkscape:export-xdpi="96"
   inkscape:export-ydpi="96"
   inkscape:version="1.1.1 (3bf5ae0d25, 2021-09-20)"
   xmlns:inkscape="http://www.inkscape.org/namespaces/inkscape"
   xmlns:sodipodi="http://sodipodi.sourceforge.net/DTD/sodipodi-0.dtd"
   xmlns="http://www.w3.org/2000/svg"
   xmlns:svg="http://www.w3.org/2000/svg">
  <sodipodi:namedview
     id="namedview7"
     pagecolor="#ffffff"
     bordercolor="#666666"
     borderopacity="1.0"
     inkscape:pageshadow="2"
     inkscape:pageopacity="0.0"
     inkscape:pagecheckerboard="0"
     inkscape:document-units="mm"
     showgrid="false"
     inkscape:zoom="0.97890839"
     inkscape:cx="469.40041"
     inkscape:cy="378.48281"
     inkscape:window-width="2560"
     inkscape:window-height="1378"
     inkscape:window-x="0"
     inkscape:window-y="31"
     inkscape:window-maximized="1"
     inkscape:current-layer="layer2" />
  <defs
     id="defs2" />
  <g
     inkscape:groupmode="layer"
     id="layer2"
     inkscape:label="drawing"
     transform="translate(-3.2202832,-3.216253)">
    <path
       style="fill:none;stroke:#000000;stroke-width:0.264583px;stroke-linecap:butt;stroke-linejoin:miter;stroke-opacity:1"
       d="m 38.93229,39.542736 c -1.547393,0.72412 -3.300907,-0.88432 -4.96262,-1.281163 -1.128091,-0.269405 -2.239061,-0.778314 -3.398436,-0.746418 -2.085929,0.05739 -3.945226,1.626349 -6.031328,1.67709 -0.708725,0.01724 -1.502183,-0.05088 -2.074341,-0.469474 C 18.751012,36.005168 17.361472,31.012482 15.483978,26.810306 14.304257,24.169873 13.942848,21.220021 12.835254,18.54853 12.065585,16.692107 11.561136,14.540587 10.073657,13.189254 8.915573,12.137167 7.2145592,11.00333 5.714562,11.448363 c -1.3086982,0.388276 -2.0008131,2.030118 -2.3594428,3.347249 -0.2753074,1.011115 0.060442,2.104095 0.258526,3.133129 0.2390704,1.241957 0.5041688,2.519046 1.1140707,3.627031 0.4169571,0.75747 1.2161739,1.245075 1.6876337,1.969878 0.6072615,0.933579 1.0956627,1.955997 1.438277,3.015691 0.4036321,1.24842 0.2966909,2.625772 0.706197,3.872278 0.6928363,2.108942 2.3759284,3.832304 2.9232504,5.983605 0.270945,1.064974 -0.11468,2.225615 0.144408,3.293536 0.342866,1.413242 1.22101,2.639773 1.827427,3.96154 0.455178,0.992122 0.865257,2.005871 1.359392,2.979176 0.706284,1.391178 1.080345,3.097434 2.290998,4.081574 0.5761,0.468312 1.383992,0.610176 2.123967,0.670539 1.106161,0.09023 2.191942,-0.356817 3.295517,-0.474533 1.118431,-0.119301 2.278485,0.05204 3.366177,-0.234402 0.763986,-0.201192 1.351505,-1.087055 2.138793,-1.021244 0.674459,0.05638 1.135732,0.740871 1.661596,1.166947 0.631319,0.51152 1.479712,0.907584 1.784176,1.660922 0.980573,2.426236 -0.568275,5.227213 -0.415854,7.839667 0.187832,3.219396 1.036471,6.36657 1.632493,9.535884 0.456599,2.42794 1.019271,4.834961 1.488614,7.26047 0.564553,2.917544 1.108297,5.839587 1.59652,8.77087 0.374487,2.248411 0.756334,4.497499 1.022072,6.76134 0.234865,2.000833 0.663697,4.014253 0.505084,6.02257 -0.162108,2.05256 -0.990565,3.99701 -1.476047,5.99791 -0.382635,1.57702 -0.212184,3.39817 -1.132445,4.73478 -1.553976,2.25703 -4.687247,2.87813 -6.78665,4.63924 -1.297284,1.08825 -2.585314,2.24123 -3.552401,3.63118 -1.175024,1.68881 -2.118227,3.58967 -2.63637,5.58072 -0.578954,2.22473 -0.384495,4.58329 -0.467546,6.88062 -0.08299,2.29574 0.18295,4.60435 -0.03049,6.89165 -0.156818,1.68051 -0.307164,3.40548 -0.914812,4.98012 -0.655323,1.69818 -1.738568,3.22109 -2.877081,4.64132 -2.476908,3.0898 -5.513846,5.69817 -8.4938254,8.30618 -1.0422492,0.91215 -2.8706833,1.23421 -3.2732161,2.55945 -0.3132733,1.03138 0.019676,2.64477 1.0092141,3.0722 2.3328008,1.00764 4.7235464,-1.92778 6.9039814,-3.23277 2.732662,-1.6355 5.016522,-3.93394 7.659247,-5.71111 1.467181,-0.98664 3.00652,-1.8628 4.540408,-2.74216 0.599934,-0.34393 1.404133,-0.44019 1.822827,-0.99056 1.693535,-2.22614 0.450715,-5.77878 1.894004,-8.17475 0.809542,-1.3439 2.410642,-2.01121 3.556664,-3.08269 2.227067,-2.0822 3.717251,-5.12437 6.441255,-6.49374 1.739004,-0.87421 3.837829,-0.7028 5.780217,-0.82732 0.454414,-0.0291 1.032541,-0.29088 1.365904,0.0193 5.088532,4.7346 0.666245,13.91583 1.794311,20.77419 0.601081,3.65442 1.0743,7.43603 2.639753,10.79243 0.745305,1.59797 1.499884,4.9396 3.128973,4.26502 2.531958,-1.04844 -0.88321,-5.41003 -1.246693,-8.12626 -0.523072,-3.90881 -1.236532,-7.8122 -1.343792,-11.75439 -0.107912,-3.96614 0.684178,-7.91428 0.706911,-11.88182 0.0084,-1.46395 -1.265848,-3.37216 -0.210582,-4.38687 1.871031,-1.79912 5.423817,-0.45866 7.757507,0.67777 3.115866,1.51733 5.145556,4.73346 7.09925,7.59597 0.903547,1.32386 1.629436,2.79805 2.074915,4.33771 0.361064,1.2479 0.02221,2.64583 0.455396,3.87057 0.19186,0.54245 0.442762,1.13997 0.920996,1.45989 0.872651,0.58377 2.102137,0.22161 3.103686,0.53658 1.060198,0.33342 2.093753,0.79922 3.019153,1.41471 0.839727,0.5585 1.436128,1.42544 2.243103,2.0303 1.06476,0.79809 2.299222,1.34399 3.401637,2.0892 0.905933,0.61239 1.674507,1.43143 2.635056,1.954 0.757329,0.41201 1.582191,0.71266 2.422068,0.90736 1.425854,0.33054 2.907209,0.38463 4.370292,0.42593 0.432292,0.0122 1.077516,0.32023 1.296318,-0.0528 1.117139,-1.90458 -1.60014,-4.19666 -2.994877,-5.90842 -1.03703,-1.27275 -2.424993,-2.25779 -3.852725,-3.06828 -1.202184,-0.68245 -2.799042,-0.60107 -3.881178,-1.46129 -1.683353,-1.33814 -2.846273,-3.3465 -3.576402,-5.36917 -0.753911,-2.08856 -0.222632,-4.45592 -0.699632,-6.62454 -0.420102,-1.90994 -1.312698,-3.68562 -1.888842,-5.55442 -0.644768,-2.09139 -1.005999,-4.27015 -1.753188,-6.32718 -0.581187,-1.60002 -1.064963,-3.30778 -2.112803,-4.64937 -1.008851,-1.29167 -2.61289,-1.98321 -3.850362,-3.05786 -2.248993,-1.95307 -4.296185,-4.12758 -6.483268,-6.14974 -0.828715,-0.76622 -1.955093,-1.28692 -2.515288,-2.26674 -0.998868,-1.74709 -1.176798,-3.90313 -1.207879,-5.91536 -0.03292,-2.131499 0.836745,-4.185281 1.085337,-6.30249 0.209383,-1.783271 0.125765,-3.593146 0.340336,-5.3758 0.494336,-4.106946 1.628859,-8.117205 2.177196,-12.21729 0.436161,-3.261309 0.815899,-6.541823 0.882705,-9.83149 0.04287,-2.110911 -0.139182,-4.222018 -0.309822,-6.326457 -0.114344,-1.410156 -0.445254,-2.802936 -0.478104,-4.217339 -0.02252,-0.969475 -0.21588,-2.023538 0.193151,-2.902789 0.344804,-0.741189 1.031363,-1.343838 1.76676,-1.700829 1.006733,-0.488708 2.210377,-0.553283 3.325572,-0.460089 1.194557,0.09983 2.269431,0.781221 3.431027,1.07724 0.848629,0.216263 1.707377,0.607335 2.577549,0.508635 0.679571,-0.07708 1.335516,-0.414875 1.872864,-0.837978 1.017806,-0.801411 1.648026,-2.003961 2.375109,-3.076127 0.811333,-1.196401 1.583967,-2.428514 2.208445,-3.732226 2.498055,-5.215145 3.912197,-10.887007 6.096566,-16.241122 1.563222,-3.83162 4.665189,-7.234118 5.01264,-11.35774 0.08409,-0.997957 -0.166302,-2.089296 -0.736068,-2.912919 -0.403233,-0.582892 -1.037047,-1.240273 -1.745351,-1.214489 -1.063499,0.03871 -1.793911,1.196625 -2.481074,2.009236 -1.194137,1.412137 -1.786777,3.239086 -2.726825,4.831695 -1.067716,1.808902 -2.299752,3.52073 -3.307932,5.363477 -0.65398,1.195342 -1.157772,2.467359 -1.772804,3.6832 -0.712402,1.408329 -1.370753,2.851792 -2.22011,4.182017 -0.522716,0.818654 -1.188472,1.536984 -1.7599,2.322412 -0.91542,1.258245 -1.32544,3.048093 -2.672141,3.827561 -1.189809,0.688659 -2.743902,0.531452 -4.108233,0.362635 -1.302612,-0.16118 -2.408529,-1.231767 -3.7197,-1.291831 -1.065163,-0.04879 -2.069752,0.513755 -3.105084,0.768784 -1.497995,0.368994 -3.040057,1.613894 -4.4953,1.101632 -0.789385,-0.277873 -1.266981,-1.197626 -1.526439,-1.993254 -0.48214,-1.478486 -0.428371,-3.204286 0.107656,-4.664099 0.382588,-1.041938 1.197146,-1.936064 2.095698,-2.587686 1.46295,-1.060919 3.550454,-0.947814 5.06467,-1.934183 1.39949,-0.911636 2.519383,-2.227036 3.527018,-3.559073 0.846887,-1.119537 2.110289,-2.263134 2.071923,-3.666383 -0.01123,-0.410896 -0.300348,-0.848064 -0.664451,-1.038828 -2.95028,-1.545732 -7.295599,2.329392 -9.985372,0.365071 C 55.350112,20.059872 55.890114,18.123267 55.349454,16.823959 54.955388,15.876944 54.080436,15.14233 53.831352,14.147301 53.1505,11.427469 55.358197,8.2157018 54.044543,5.7387362 53.592115,4.8856595 52.49038,4.5626196 51.605955,4.1750342 50.613245,3.7399949 49.543782,3.3787972 48.46026,3.3521212 c -0.932554,-0.022959 -1.892124,0.1829849 -2.738977,0.574168 -1.306193,0.6033636 -2.608166,1.4498489 -3.413085,2.642448 -0.616076,0.9128017 -0.732738,2.0905294 -0.898464,3.17924 -0.244738,1.6077608 -0.09288,3.2512528 -0.130273,4.8771048 -0.0181,0.786905 0.131743,1.59401 -0.04553,2.360901 -0.324759,1.404925 -0.619642,3.128748 -1.823191,3.922947 -1.203127,0.793921 -2.881183,0.103657 -4.322344,0.133328 -2.761938,0.05686 -6.341582,-1.875581 -8.287126,0.08564 -0.661072,0.666399 -0.412775,1.969812 -0.0065,2.816006 0.269919,0.56219 1.041223,0.706878 1.462659,1.166558 0.551922,0.602006 0.789368,1.452545 1.356034,2.040693 0.598875,0.621579 1.343114,1.100914 2.101895,1.512331 0.726465,0.393895 1.522979,0.648831 2.311387,0.896456 1.013703,0.318386 2.094499,0.402138 3.097223,0.753573 0.92864,0.32547 2.022574,0.510139 2.676477,1.245471 0.705025,0.79282 1.001448,1.9619 0.996516,3.022843 -0.0059,1.279614 -0.754873,2.448715 -1.235752,3.63455 -0.183878,0.453439 -0.18574,1.118967 -0.628919,1.326357 z"
       id="path190"
       sodipodi:nodetypes="aaaaaaaaaaaaaaaaaaaaaaaaaaaaaaaaaaaaaaaaaaaaaaaaaaaaaaaaaaaaaaaaaaaaaaaaaaaaaaaaaaaaaaaaaaaaaaaaaaaaaaaaaaaaaaaaaaaaaaaaaaaaaaaaaaaaaaaaaaaaaaaaa" />
    <path
       style="fill:none;stroke:#000000;stroke-width:0.264583px;stroke-linecap:butt;stroke-linejoin:miter;stroke-opacity:1"
       d="m 151.97111,39.542736 c -1.54729,0.724348 -3.30091,-0.884321 -4.96262,-1.281163 -1.12809,-0.269405 -2.23906,-0.778314 -3.39844,-0.746418 -2.08593,0.05739 -3.94523,1.626349 -6.03133,1.67709 -0.70872,0.01724 -1.50218,-0.05088 -2.07434,-0.469474 -3.71455,-2.717603 -5.1041,-7.710288 -6.98159,-11.912465 -1.17972,-2.640433 -1.54113,-5.590285 -2.64872,-8.261776 -0.76967,-1.856423 -1.27412,-4.007942 -2.7616,-5.359276 -1.15808,-1.052086 -2.85909,-2.185923 -4.35909,-1.740891 -1.3087,0.388276 -2.00081,2.030119 -2.35944,3.347249 -0.27531,1.011115 0.0604,2.104095 0.25852,3.133129 0.23907,1.241957 0.50417,2.519046 1.11407,3.627031 0.41696,0.757471 1.21618,1.245074 1.68764,1.969878 0.60726,0.933579 1.09566,1.955997 1.43827,3.015691 0.40363,1.248421 0.29669,2.625772 0.7062,3.872278 0.69284,2.108942 2.37593,3.832304 2.92325,5.983605 0.27095,1.064974 -0.11468,2.225615 0.14441,3.293536 0.34287,1.413242 1.22101,2.639773 1.82743,3.96154 0.45518,0.992122 0.86525,2.005871 1.35939,2.979176 0.70628,1.391178 1.08035,3.097433 2.291,4.081574 0.5761,0.46831 1.38399,0.610176 2.12396,0.670539 1.10616,0.09023 2.19194,-0.356817 3.29552,-0.474533 1.11843,-0.119301 2.27849,0.05204 3.36618,-0.234402 0.76399,-0.201192 1.3515,-1.087054 2.13879,-1.021244 0.67446,0.05638 1.13574,0.74087 1.6616,1.166947 0.63132,0.511519 1.47971,0.907585 1.78417,1.660922 0.98057,2.426237 -0.56827,5.227213 -0.41585,7.839667 0.18783,3.219396 1.03647,6.36657 1.63249,9.535884 0.4566,2.42794 1.01927,4.834961 1.48861,7.26047 0.56455,2.917543 1.1083,5.839586 1.59652,8.770868 0.37449,2.248412 0.75634,4.497498 1.02208,6.76134 0.23487,2.000835 0.66369,4.014257 0.50508,6.022575 -0.16211,2.052567 -0.99057,3.997007 -1.47605,5.997907 -0.38263,1.57702 -0.21218,3.39817 -1.13244,4.73478 -1.55397,2.25703 -4.68725,2.87813 -6.78665,4.63924 -1.29728,1.08825 -2.58531,2.24123 -3.5524,3.63118 -1.17502,1.68881 -2.11823,3.58967 -2.63637,5.58072 -0.57895,2.22473 -0.3845,4.58329 -0.46755,6.88062 -0.083,2.29574 0.18294,4.60435 -0.0305,6.89165 -0.15682,1.68051 -0.30716,3.40548 -0.91481,4.98012 -0.65532,1.69818 -1.73857,3.22109 -2.87708,4.64132 -2.47691,3.08981 -5.51385,5.69817 -8.49383,8.30618 -1.04225,0.91215 -2.87068,1.23421 -3.27321,2.55945 -0.31327,1.03138 0.0197,2.64477 1.00921,3.0722 2.3328,1.00765 4.72355,-1.92778 6.90398,-3.23277 2.73266,-1.6355 5.01652,-3.93394 7.65925,-5.71111 1.46718,-0.98664 3.00652,-1.8628 4.54041,-2.74216 0.59993,-0.34393 1.40413,-0.44019 1.82282,-0.99056 1.69353,-2.22614 0.45072,-5.77878 1.89401,-8.17475 0.80954,-1.3439 2.41064,-2.01122 3.55666,-3.08269 2.22707,-2.0822 3.71725,-5.12437 6.44126,-6.49374 1.739,-0.87421 3.83782,-0.7028 5.78021,-0.82732 0.45442,-0.0291 1.03255,-0.29088 1.36591,0.0193 5.08853,4.7346 0.66625,13.91583 1.79431,20.77419 0.60108,3.65442 1.0743,7.43603 2.63975,10.79243 0.74531,1.59797 1.49989,4.9396 3.12898,4.26502 2.53196,-1.04844 -0.88322,-5.41003 -1.2467,-8.12626 -0.52307,-3.90881 -1.23653,-7.8122 -1.34379,-11.75439 -0.10791,-3.96614 0.68418,-7.91428 0.70691,-11.88182 0.008,-1.46395 -1.26585,-3.37216 -0.21058,-4.38687 1.87103,-1.79912 5.42381,-0.45866 7.7575,0.67777 3.11587,1.51733 5.14555,4.73346 7.09925,7.59597 0.90355,1.32386 1.62944,2.79805 2.07492,4.33771 0.36106,1.2479 0.0222,2.64583 0.45539,3.87057 0.19186,0.54245 0.44277,1.13997 0.921,1.45989 0.87265,0.58377 2.10214,0.22161 3.10369,0.53658 1.0602,0.33342 2.09375,0.79922 3.01915,1.41471 0.83973,0.5585 1.43613,1.42544 2.2431,2.0303 1.06476,0.79809 2.29922,1.34399 3.40164,2.0892 0.90593,0.61239 1.67451,1.43143 2.63506,1.954 0.75733,0.41201 1.58219,0.71266 2.42206,0.90736 1.42586,0.33054 2.90721,0.38463 4.3703,0.42593 0.43229,0.0122 1.07751,0.32023 1.29631,-0.0528 1.11714,-1.90458 -1.60013,-4.19666 -2.99487,-5.90842 -1.03703,-1.27275 -2.425,-2.25779 -3.85273,-3.06828 -1.20219,-0.68245 -2.79904,-0.60107 -3.88118,-1.46129 -1.68335,-1.33814 -2.84627,-3.3465 -3.5764,-5.36917 -0.75391,-2.08856 -0.22263,-4.45592 -0.69963,-6.62454 -0.4201,-1.90994 -1.3127,-3.68562 -1.88884,-5.55442 -0.64477,-2.09139 -1.006,-4.27015 -1.75319,-6.32718 -0.58119,-1.60002 -1.06496,-3.30778 -2.1128,-4.64937 -1.00885,-1.29167 -2.6129,-1.98321 -3.85037,-3.05786 -2.24899,-1.95307 -4.29618,-4.12758 -6.48326,-6.14974 -0.82872,-0.76622 -1.95509,-1.28692 -2.51529,-2.26674 -0.99887,-1.74709 -1.1768,-3.90312 -1.20788,-5.915357 -0.0329,-2.131501 0.83675,-4.185284 1.08534,-6.302495 0.20938,-1.783271 0.12576,-3.593146 0.34033,-5.3758 0.49433,-4.106946 1.62886,-8.117203 2.1772,-12.217288 0.43616,-3.261309 0.81589,-6.541823 0.8827,-9.83149 0.0429,-2.110911 -0.13918,-4.222018 -0.30982,-6.326457 -0.11434,-1.410156 -0.44525,-2.802936 -0.4781,-4.217339 -0.0225,-0.969475 -0.21588,-2.023538 0.19315,-2.902789 0.3448,-0.741189 1.03136,-1.343838 1.76676,-1.700829 1.00673,-0.488708 2.21038,-0.553283 3.32557,-0.460089 1.19456,0.09983 2.26943,0.781221 3.43103,1.07724 0.84863,0.216263 1.70738,0.607335 2.57755,0.508635 0.67957,-0.07708 1.33551,-0.414876 1.87286,-0.837978 1.01781,-0.801412 1.64803,-2.003961 2.37511,-3.076127 0.81133,-1.196401 1.58396,-2.428515 2.20844,-3.732226 2.49805,-5.215147 3.9122,-10.887007 6.09657,-16.241122 1.56322,-3.83162 4.66519,-7.234118 5.01264,-11.35774 0.0841,-0.997957 -0.1663,-2.089296 -0.73607,-2.912919 -0.40323,-0.582891 -1.03705,-1.240273 -1.74535,-1.214489 -1.0635,0.03871 -1.79391,1.196626 -2.48107,2.009236 -1.19414,1.412138 -1.78678,3.239085 -2.72683,4.831695 -1.06772,1.808902 -2.29975,3.52073 -3.30793,5.363477 -0.65398,1.195342 -1.15777,2.467359 -1.7728,3.6832 -0.7124,1.408329 -1.37075,2.851792 -2.22011,4.182017 -0.52272,0.818654 -1.18847,1.536984 -1.7599,2.322412 -0.91542,1.258245 -1.32544,3.048093 -2.67214,3.827561 -1.18981,0.68866 -2.74391,0.531452 -4.10824,0.362635 -1.30261,-0.16118 -2.40853,-1.231767 -3.7197,-1.291831 -1.06516,-0.04879 -2.06975,0.513755 -3.10508,0.768784 -1.498,0.368995 -3.04006,1.613894 -4.4953,1.101632 -0.78939,-0.277873 -1.26698,-1.197626 -1.52644,-1.993254 -0.48214,-1.478486 -0.42837,-3.204286 0.10766,-4.664099 0.38259,-1.041938 1.19715,-1.936063 2.0957,-2.587686 1.46295,-1.060917 3.55045,-0.947816 5.06466,-1.934183 1.39949,-0.911636 2.51939,-2.227035 3.52702,-3.559073 0.84689,-1.119537 2.11029,-2.263134 2.07192,-3.666383 -0.0112,-0.410896 -0.30035,-0.848064 -0.66445,-1.038828 -2.95028,-1.545733 -7.2956,2.329393 -9.98537,0.365071 -1.13651,-0.829982 -0.5965,-2.766586 -1.13716,-4.065895 -0.39407,-0.947015 -1.26902,-1.681629 -1.5181,-2.676658 -0.68085,-2.719832 1.52684,-5.9315995 0.21319,-8.4085648 -0.45243,-0.8530771 -1.55416,-1.1761164 -2.43859,-1.563702 -0.99271,-0.4350386 -2.06217,-0.7962367 -3.14569,-0.822913 -0.93256,-0.02296 -1.89213,0.1829849 -2.73898,0.574168 -1.30619,0.6033634 -2.60817,1.4498473 -3.41309,2.6424476 -0.61608,0.9128015 -0.73273,2.0905296 -0.89846,3.17924 -0.24474,1.6077612 -0.0929,3.2512532 -0.13027,4.8771052 -0.0181,0.786905 0.13177,1.594009 -0.0455,2.360901 -0.32475,1.404927 -0.61964,3.128748 -1.82319,3.922947 -1.20313,0.793922 -2.88119,0.103657 -4.32235,0.133328 -2.76194,0.05686 -6.3414,-1.875407 -8.28712,0.08564 -0.66113,0.66634 -0.4132,1.969776 -0.007,2.816006 0.26987,0.562214 1.04122,0.706878 1.46266,1.166558 0.55192,0.602006 0.78937,1.452545 1.35603,2.040693 0.59887,0.621578 1.34311,1.100915 2.10189,1.512331 0.72647,0.393896 1.52298,0.648831 2.31139,0.896456 1.0137,0.318386 2.0945,0.402138 3.09722,0.753573 0.92864,0.32547 2.02258,0.510139 2.67648,1.245471 0.70503,0.79282 1.00145,1.961899 0.99652,3.022843 -0.006,1.279614 -0.75505,2.448644 -1.23575,3.63455 -0.18379,0.453403 -0.18535,1.11893 -0.62844,1.326357 z"
       id="path190-3"
       sodipodi:nodetypes="aaaaaaaaaaaaaaaaaaaaaaaaaaaaaaaaaaaaaaaaaaaaaaaaaaaaaaaaaaaaaaaaaaaaaaaaaaaaaaaaaaaaaaaaaaaaaaaaaaaaaaaaaaaaaaaaaaaaaaaaaaaaaaaaaaaaaaaaaaaaaaaaa" />
    <text
       xml:space="preserve"
       style="font-style:normal;font-weight:normal;font-size:10.5833px;line-height:1.25;font-family:sans-serif;fill:#000000;fill-opacity:1;stroke:none;stroke-width:0.264583"
       x="62.094269"
       y="-11.721461"
       id="text2667"
       transform="rotate(90)"><tspan
         sodipodi:role="line"
         id="tspan2665"
         style="stroke-width:0.264583"
         x="62.094269"
         y="-11.721461">Dorsal</tspan></text>
    <text
       xml:space="preserve"
       style="font-style:normal;font-weight:normal;font-size:10.5833px;line-height:1.25;font-family:sans-serif;fill:#000000;fill-opacity:1;stroke:none;stroke-width:0.264583"
       x="63.050282"
       y="-119.73425"
       id="text6421"
       transform="rotate(90)"><tspan
         sodipodi:role="line"
         id="tspan6419"
         style="stroke-width:0.264583"
         x="63.050282"
         y="-119.73425">Ventral</tspan></text>
  </g>
</svg>
